<svg width="44px" height="44px" viewBox="0 0 16 17" fill="none" xmlns="http://www.w3.org/2000/svg">
<path d="M8.70744 2.37373L12.2932 5.95952C12.6838 6.35004 12.6838 6.98321 12.2932 7.37373C12.1057 7.56127 11.8513 7.66663 11.5861 7.66663H4.41455C3.86227 7.66663 3.41455 7.21891 3.41455 6.66663C3.41455 6.40141 3.51991 6.14706 3.70744 5.95952L7.29323 2.37373C7.68375 1.98321 8.31692 1.98321 8.70744 2.37373Z" fill="#333333"/>
<path d="M8.70744 14.9595L12.2932 11.3737C12.6838 10.9832 12.6838 10.35 12.2932 9.95952C12.1057 9.77198 11.8513 9.66663 11.5861 9.66663H4.41455C3.86227 9.66663 3.41455 10.1143 3.41455 10.6666C3.41455 10.9318 3.51991 11.1862 3.70744 11.3737L7.29323 14.9595C7.68375 15.35 8.31692 15.35 8.70744 14.9595Z" fill="#333333"/>
</svg>
