<svg width="44px" height="44px" viewBox="0 0 24 24" fill="none" xmlns="http://www.w3.org/2000/svg">
<path d="M18.4742 16.195C18.4742 17.3481 17.6586 18.2856 16.6578 18.2856H7.41406C6.41328 18.2856 5.6 17.3481 5.6 16.1926V11.2684C5.6 10.4832 5.97266 9.77308 6.57266 9.41448L10.4375 7.10823V5.09026C10.4375 4.35198 10.7609 3.68401 11.3047 3.30433C11.7523 2.99026 12.2961 2.91526 12.8023 3.09808L17.2109 4.69651C17.9656 4.97073 18.4742 5.77229 18.4742 6.6887V16.195ZM12.1648 4.53245C12.05 4.61214 11.9352 4.81604 11.9352 5.09026V16.7832H16.6602C16.7727 16.7832 16.9766 16.5582 16.9766 16.1926V6.6887C16.9766 6.3887 16.8336 6.15198 16.7 6.10511L12.2914 4.50667C12.268 4.49729 12.2305 4.48558 12.1648 4.53245ZM7.1 11.2684H7.09766V16.1926C7.09766 16.5582 7.30156 16.7832 7.41406 16.7832H10.4352V8.85433L7.34375 10.7012C7.22187 10.7739 7.1 10.9918 7.1 11.2684ZM19.0789 15.2434C19.2805 14.8801 19.7375 14.7489 20.0984 14.9481C21.7297 15.8457 22.0719 16.8512 22.0719 17.5332C22.0719 20.2614 16.9016 21.7332 12.0359 21.7332C7.17031 21.7332 2 20.2614 2 17.5332C2 16.8582 2.33516 15.8645 3.92656 14.9739C4.28984 14.7723 4.74688 14.9012 4.94844 15.2621C5.15 15.6254 5.02109 16.0824 4.66016 16.284C3.92188 16.6965 3.5 17.1535 3.5 17.5356C3.5 18.6371 6.82578 20.2356 12.0359 20.2356C17.2461 20.2356 20.5719 18.6371 20.5719 17.5356C20.5719 17.1442 20.1359 16.6825 19.3742 16.2629C19.0109 16.0614 18.8797 15.6067 19.0789 15.2434Z" fill="#333333"/>
</svg>
