<svg width="44px" height="44px" viewBox="0 0 24 25" fill="none" xmlns="http://www.w3.org/2000/svg">
<path d="M17.1 4.46206H18.2812C19.5211 4.46206 20.5312 5.47222 20.5312 6.71206V19.7433C20.5312 20.9832 19.5211 21.9933 18.2812 21.9933H5.25C4.01016 21.9933 3 20.9832 3 19.7433V6.71206C3 5.47222 4.01016 4.46206 5.25 4.46206H6.43125V4.41753C6.43125 3.4519 7.21641 2.66675 8.18203 2.66675H15.3492C16.3148 2.66675 17.1 3.4519 17.1 4.41753V4.46206ZM8.18203 4.16675C8.04375 4.16675 7.93125 4.27925 7.93125 4.41753V6.00659C7.93125 6.14487 8.04375 6.25737 8.18203 6.25737H15.3469C15.4852 6.25737 15.5977 6.14487 15.5977 6.00659V4.41753C15.5977 4.27925 15.4852 4.16675 15.3469 4.16675H8.18203ZM19.0312 19.7433V6.71206C19.0312 6.29956 18.6938 5.96206 18.2812 5.96206H17.0977V6.00659C17.0977 6.97222 16.3125 7.75737 15.3469 7.75737H8.18203C7.21641 7.75737 6.43125 6.97222 6.43125 6.00659V5.96206H5.25C4.8375 5.96206 4.5 6.29956 4.5 6.71206V19.7433C4.5 20.1558 4.8375 20.4933 5.25 20.4933H18.2812C18.6938 20.4933 19.0312 20.1558 19.0312 19.7433ZM15.3117 11.0152H8.21953C7.80469 11.0152 7.46953 11.3503 7.46953 11.7652C7.46953 12.18 7.80469 12.5152 8.21953 12.5152H15.3117C15.7266 12.5152 16.0617 12.18 16.0617 11.7652C16.0617 11.3503 15.7266 11.0152 15.3117 11.0152ZM15.3117 15.2035H8.21953C7.80469 15.2035 7.46953 15.5386 7.46953 15.9535C7.46953 16.3683 7.80469 16.7035 8.21953 16.7035H15.3117C15.7266 16.7035 16.0617 16.3683 16.0617 15.9535C16.0617 15.5386 15.7266 15.2035 15.3117 15.2035Z" fill="#333333"/>
</svg>
