<svg width="44px" height="44px" viewBox="0 0 24 24" fill="none" xmlns="http://www.w3.org/2000/svg">
<path fill-rule="evenodd" clip-rule="evenodd" d="M11.672 7.629H20.05C21.291 7.629 22.3 8.638 22.3 9.879V18.045C22.3 19.286 21.291 20.295 20.05 20.295H4.25C3.009 20.295 2 19.286 2 18.045V6.25C2 5.009 3.009 4 4.25 4H8.097C8.67 4 9.206 4.28 9.533 4.75L11.467 7.522C11.513 7.589 11.59 7.629 11.672 7.629ZM20.05 18.795C20.464 18.795 20.8 18.459 20.8 18.045V9.879C20.8 9.465 20.464 9.129 20.05 9.129H11.672C11.1 9.129 10.563 8.849 10.236 8.38L8.302 5.607C8.256 5.54 8.179 5.5 8.097 5.5H4.25C3.836 5.5 3.5 5.837 3.5 6.25V18.045C3.5 18.459 3.836 18.795 4.25 18.795H20.05Z" fill="#333333"/>
<path d="M20.4225 5.5001H13.3195C12.9055 5.5001 12.5695 5.1641 12.5695 4.7501C12.5695 4.3361 12.9055 4.0001 13.3195 4.0001H20.4225C20.8365 4.0001 21.1725 4.3361 21.1725 4.7501C21.1725 5.1641 20.8365 5.5001 20.4225 5.5001Z" fill="#333333"/>
</svg>
