<svg width="44px" height="44px" viewBox="0 0 24 25" fill="none" xmlns="http://www.w3.org/2000/svg">
<path d="M14.8883 7.94844C14.8883 10.4023 12.8914 12.3992 10.4375 12.3992C7.98359 12.3992 5.98672 10.4047 5.98672 7.95078C5.98672 5.49688 7.98359 3.5 10.4375 3.5C12.8914 3.5 14.8883 5.49453 14.8883 7.94844ZM13.3883 7.95078C13.3883 6.32422 12.0641 5 10.4375 5C8.81094 5 7.48672 6.32422 7.48672 7.95078C7.48672 9.57734 8.81094 10.9016 10.4375 10.9016C12.0641 10.9016 13.3883 9.57734 13.3883 7.95078ZM13.2195 13.4891H7.79141C4.59687 13.4891 2 16.0859 2 19.2805V20.2648C2 20.9586 2.56484 21.5258 3.26094 21.5258H17.7547C18.4484 21.5258 19.0156 20.9609 19.0156 20.2648V19.2805C19.0109 16.0859 16.4141 13.4891 13.2195 13.4891ZM3.5 20.0258V19.2805C3.5 16.9133 5.42656 14.9867 7.79375 14.9867H13.2195C15.5867 14.9867 17.5133 16.9133 17.5133 19.2805V20.0258H17.5109H3.5ZM16.1234 10.2289C15.7086 10.2289 15.3734 10.5641 15.3734 10.9789C15.3734 11.3937 15.7086 11.7289 16.1234 11.7289C18.1297 11.7289 19.7609 10.0977 19.7609 8.09375C19.7609 6.08984 18.1273 4.45859 16.1234 4.45859C15.7086 4.45859 15.3734 4.79375 15.3734 5.20859C15.3734 5.62344 15.7086 5.95859 16.1234 5.95859C17.3023 5.95859 18.2609 6.91719 18.2609 8.09375C18.2609 9.27031 17.3 10.2289 16.1234 10.2289ZM18.507 14.0328C18.6219 13.6344 19.0391 13.4023 19.4352 13.5172C21.3828 14.075 22.7445 15.8797 22.7445 17.9094V18.6852C22.7445 19.332 22.2172 19.8594 21.5703 19.8594H20.893C20.4781 19.8594 20.143 19.5242 20.143 19.1094C20.143 18.6945 20.4781 18.3594 20.893 18.3594H21.2445V17.9094C21.2445 16.5453 20.3305 15.3336 19.0227 14.9609C18.6242 14.8461 18.3922 14.4312 18.507 14.0328Z" fill="#333333"/>
</svg>
