<svg width="44px" height="44px" viewBox="0 0 24 24" fill="none" xmlns="http://www.w3.org/2000/svg">
<path fill-rule="evenodd" clip-rule="evenodd" d="M21.5841 19.9327L19.2096 17.558C20.3878 16.0301 21.0968 14.1225 21.0968 12.0483C21.0968 7.05891 17.0372 3 12.048 3C7.05891 3 3 7.05914 3 12.0483C3 17.0381 7.05867 21.097 12.0478 21.097C14.4232 21.097 16.5813 20.1696 18.1976 18.667L20.5235 20.993C20.6639 21.1339 20.8547 21.2131 21.0537 21.2128C21.2461 21.2128 21.4376 21.1397 21.5838 20.993C21.877 20.7002 21.877 20.2256 21.5841 19.9327ZM12.048 19.597C7.88602 19.597 4.50023 16.2108 4.50023 12.0483C4.50023 7.88625 7.88602 4.5 12.048 4.5C16.2101 4.5 19.5968 7.88625 19.5968 12.0483C19.5968 16.2108 16.2101 19.597 12.048 19.597ZM16.4278 15.1552H15.4434V8.19141C15.4434 7.77727 15.1076 7.44141 14.6934 7.44141H9.40242C8.98828 7.44141 8.65242 7.77727 8.65242 8.19141V15.1552H7.66805C7.25391 15.1552 6.91805 15.491 6.91805 15.9052C6.91805 16.3193 7.25391 16.6552 7.66805 16.6552H16.4278C16.842 16.6552 17.1778 16.3193 17.1778 15.9052C17.1778 15.4913 16.842 15.1552 16.4278 15.1552ZM10.1524 8.94141H13.9434V15.1552H12.798V12.8358C12.798 12.4216 12.4622 12.0858 12.048 12.0858C11.6339 12.0858 11.298 12.4216 11.298 12.8358V15.1552H10.1524V8.94141Z" fill="#333333"/>
</svg>
