<svg width="44px" height="44px" viewBox="0 0 24 24" fill="none" xmlns="http://www.w3.org/2000/svg">
<path fill-rule="evenodd" clip-rule="evenodd" d="M16.0336 7.27266C16.0336 9.62813 14.1164 11.5453 11.7609 11.5453C9.40547 11.5453 7.48828 9.62813 7.48828 7.27266C7.48828 4.91719 9.40547 3 11.7609 3C14.1164 3 16.0336 4.91719 16.0336 7.27266ZM14.5336 7.275C14.5336 5.74687 13.2891 4.50234 11.7609 4.50234C10.2328 4.50234 8.98828 5.74687 8.98828 7.275C8.98828 8.80312 10.2328 10.0477 11.7609 10.0477C13.2891 10.0477 14.5336 8.80312 14.5336 7.275ZM11.7609 12.9844H8.55703C5.49375 12.9844 3 15.4781 3 18.5414V19.7836C3 20.1984 3.33516 20.5336 3.75 20.5336C4.16484 20.5336 4.5 20.1984 4.5 19.7836V18.5414C4.5 16.3055 6.31875 14.4844 8.55703 14.4844H11.7609C12.1758 14.4844 12.5109 14.1492 12.5109 13.7344C12.5109 13.3219 12.1758 12.9844 11.7609 12.9844ZM17.5008 16.0242H20.0484C20.4633 16.0242 20.7984 16.3594 20.7984 16.7742C20.7984 17.1891 20.4633 17.5242 20.0484 17.5242H17.5008V20.0719C17.5008 20.4867 17.1656 20.8219 16.7508 20.8219C16.3359 20.8219 16.0008 20.4867 16.0008 20.0719V17.5242H13.4531C13.0383 17.5242 12.7031 17.1891 12.7031 16.7742C12.7031 16.3594 13.0383 16.0242 13.4531 16.0242H16.0008V13.4766C16.0008 13.0617 16.3359 12.7266 16.7508 12.7266C17.1656 12.7266 17.5008 13.0617 17.5008 13.4766V16.0242Z" fill="#333333"/>
</svg>
