<svg width="44px" height="44px" viewBox="0 0 16 17" fill="none" xmlns="http://www.w3.org/2000/svg">
<path fill-rule="evenodd" clip-rule="evenodd" d="M12.225 8.24664L8.35167 4.37331C8.15633 4.17797 7.83967 4.17797 7.64433 4.37331L3.77167 8.24664C3.67367 8.34397 3.625 8.47197 3.625 8.59997C3.625 8.72797 3.67367 8.85597 3.77167 8.95331C3.967 9.14864 4.283 9.14864 4.47833 8.95331L7.99833 5.43397L11.5177 8.95331C11.713 9.14864 12.0297 9.14864 12.225 8.95331C12.4203 8.75797 12.4203 8.44197 12.225 8.24664ZM12.225 12.2466L8.35167 8.37331C8.15633 8.17797 7.83967 8.17797 7.64433 8.37331L3.77167 12.2466C3.67367 12.344 3.625 12.472 3.625 12.6C3.625 12.728 3.67367 12.856 3.77167 12.9533C3.967 13.1486 4.283 13.1486 4.47833 12.9533L7.99833 9.43397L11.5177 12.9533C11.713 13.1486 12.0297 13.1486 12.225 12.9533C12.4203 12.758 12.4203 12.442 12.225 12.2466Z" fill="#333333"/>
</svg>
