<svg width="44px" height="44px" viewBox="0 0 23 24" fill="none" xmlns="http://www.w3.org/2000/svg">
<path fill-rule="evenodd" clip-rule="evenodd" d="M11.5 4.95371C11.5 4.75204 11.2735 4.63337 11.1077 4.74816L6.69057 7.80617C6.23067 8.12456 5.68461 8.29514 5.12525 8.29514H3.75C3.61193 8.29514 3.5 8.40707 3.5 8.54514V15.5451C3.5 15.6832 3.61193 15.7951 3.75 15.7951H5.12525C5.68461 15.7951 6.23067 15.9657 6.69057 16.2841L11.1077 19.3421C11.2735 19.4569 11.5 19.3382 11.5 19.1366V4.95371ZM10.2539 3.51487C11.4145 2.71134 13 3.54205 13 4.95371V19.1366C13 20.5482 11.4145 21.3789 10.2539 20.5754L5.83676 17.5174C5.62771 17.3727 5.3795 17.2951 5.12525 17.2951H3.75C2.7835 17.2951 2 16.5116 2 15.5451V8.54514C2 7.57864 2.7835 6.79514 3.75 6.79514H5.12525C5.3795 6.79514 5.62771 6.7176 5.83676 6.57288L10.2539 3.51487Z" fill="#333333"/>
<path fill-rule="evenodd" clip-rule="evenodd" d="M17.3889 4.99065C17.6735 4.68969 18.1481 4.67643 18.4491 4.96104C19.4169 5.8762 20.1869 6.97996 20.7116 8.2042C21.2363 9.42845 21.5046 10.7472 21.4999 12.0792C21.4953 13.4111 21.2178 14.728 20.6845 15.9485C20.1513 17.1691 19.3736 18.2674 18.3995 19.1758C18.0965 19.4583 17.622 19.4418 17.3395 19.1388C17.057 18.8359 17.0736 18.3613 17.3765 18.0788C18.2008 17.3102 18.8588 16.3808 19.31 15.348C19.7612 14.3152 19.996 13.201 20 12.0739C20.0039 10.9469 19.7769 9.83102 19.3329 8.79512C18.8889 7.75922 18.2374 6.82527 17.4185 6.0509C17.1175 5.7663 17.1043 5.29161 17.3889 4.99065Z" fill="#333333"/>
<path fill-rule="evenodd" clip-rule="evenodd" d="M15.0481 8.68638C15.341 8.39349 15.8159 8.39349 16.1088 8.68638C16.9996 9.57718 17.5 10.7854 17.5 12.0451C17.5 13.3049 16.9996 14.5131 16.1088 15.4039C15.8159 15.6968 15.341 15.6968 15.0481 15.4039C14.7552 15.111 14.7552 14.6361 15.0481 14.3432C15.6576 13.7337 16 12.9071 16 12.0451C16 11.1832 15.6576 10.3565 15.0481 9.74704C14.7552 9.45415 14.7552 8.97927 15.0481 8.68638Z" fill="#333333"/>
</svg>
