<svg width="44px" height="44px" viewBox="0 0 32 32" fill="none" xmlns="http://www.w3.org/2000/svg">
<g id="icon/Flag">
<g id="Union">
<path fill-rule="evenodd" clip-rule="evenodd" d="M25.0763 6L23.1998 10.8253C22.6558 12.2241 22.6558 13.7759 23.1998 15.1747L25.0763 20H6V12V8C6 6.89543 6.89543 6 8 6L25.0763 6ZM4 8V12V20V22V28C4 28.5523 4.44772 29 5 29C5.55228 29 6 28.5523 6 28V22H25.0763C26.483 22 27.4502 20.5862 26.9403 19.2751L25.0638 14.4498C24.7012 13.5173 24.7012 12.4827 25.0638 11.5502L26.9403 6.72489C27.4502 5.41382 26.483 4 25.0763 4H8C5.79086 4 4 5.79086 4 8ZM15.2071 10.7071C15.5976 10.3166 15.5976 9.68342 15.2071 9.29289C14.8166 8.90237 14.1834 8.90237 13.7929 9.29289L9.29289 13.7929C8.90237 14.1834 8.90237 14.8166 9.29289 15.2071C9.68342 15.5976 10.3166 15.5976 10.7071 15.2071L15.2071 10.7071Z" fill="#98999C"/>
</g>
</g>
</svg>
