<svg width="44px" height="44px" viewBox="0 0 24 25" fill="none" xmlns="http://www.w3.org/2000/svg">
<path d="M16.0336 7.77266C16.0336 10.1281 14.1164 12.0453 11.7609 12.0453C9.40547 12.0453 7.49062 10.1328 7.49062 7.775C7.49062 5.41719 9.40547 3.5 11.7609 3.5C14.1164 3.5 16.0336 5.41719 16.0336 7.77266ZM14.5336 7.775C14.5336 6.24687 13.2891 5.00234 11.7609 5.00234C10.2328 5.00234 8.98828 6.24687 8.98828 7.775C8.98828 9.30312 10.2328 10.5477 11.7609 10.5477C13.2891 10.5477 14.5336 9.30312 14.5336 7.775ZM12.5109 14.2344C12.5109 13.8195 12.1758 13.4844 11.7609 13.4844H8.55703C5.49375 13.4844 3 15.9781 3 19.0414V20.2836C3 20.6984 3.33516 21.0336 3.75 21.0336C4.16484 21.0336 4.5 20.6984 4.5 20.2836V19.0414C4.5 16.8055 6.31875 14.9844 8.55703 14.9844H11.7609C12.1758 14.9844 12.5109 14.6492 12.5109 14.2344ZM16.7484 13.9227C19.8469 13.9227 21.2742 17.3492 21.3328 17.4945C21.4055 17.675 21.4055 17.8789 21.3328 18.057C21.2742 18.2047 19.8469 21.6289 16.7484 21.6289C13.5938 21.6289 12.2156 18.193 12.1594 18.0477C12.0914 17.8742 12.0914 17.6797 12.1594 17.5039C12.218 17.3562 13.5938 13.9227 16.7484 13.9227ZM16.7484 20.1289C18.4148 20.1289 19.4531 18.4578 19.807 17.7758C19.4531 17.0938 18.4148 15.4227 16.7484 15.4227C15.0398 15.4227 14.0227 17.1008 13.6828 17.7758C14.0227 18.4484 15.0398 20.1289 16.7484 20.1289ZM16.248 18.6425C15.9384 18.4637 15.7477 18.1333 15.7477 17.7758C15.7477 17.4182 15.9384 17.0879 16.248 16.9091C16.5577 16.7303 16.9392 16.7303 17.2488 16.9091C17.5585 17.0879 17.7492 17.4182 17.7492 17.7758C17.7492 18.1333 17.5585 18.4637 17.2488 18.6425C16.9392 18.8213 16.5577 18.8213 16.248 18.6425Z" fill="#333333"/>
</svg>
