<svg width="44px" height="44px" viewBox="0 0 24 25" fill="none" xmlns="http://www.w3.org/2000/svg">
<path d="M11.8789 2.5C6.43203 2.5 2 6.93203 2 12.3789C2 17.8258 6.43203 22.2578 11.8789 22.2578C17.3258 22.2578 21.7578 17.8258 21.7578 12.3789C21.7578 6.93203 17.3258 2.5 11.8789 2.5ZM20.218 11.6289H17.6656C17.5508 8.94531 16.8359 6.59453 15.7367 4.94922C18.207 6.23828 19.9578 8.72031 20.218 11.6289ZM11.1289 11.6289H7.59219C7.77031 7.91172 9.26094 4.81328 11.1289 4.14297V11.6289ZM11.1289 13.1289V20.6148C9.26094 19.9445 7.77031 16.8461 7.59219 13.1289H11.1289ZM12.6289 13.1289H16.1656C15.9875 16.8461 14.4969 19.9445 12.6289 20.6148V13.1289ZM12.6289 11.6289V4.14297C14.4969 4.81328 15.9875 7.91172 16.1656 11.6289H12.6289ZM6.09219 11.6289H3.53984C3.8 8.72031 5.55078 6.23828 8.02109 4.94922C6.92188 6.59453 6.20703 8.94297 6.09219 11.6289ZM3.53984 13.1289H6.09219C6.20703 15.8125 6.92188 18.1633 8.02109 19.8086C5.55078 18.5195 3.8 16.0375 3.53984 13.1289ZM17.6656 13.1313H20.218C19.9578 16.0375 18.207 18.5195 15.7367 19.8086C16.8359 18.1633 17.5508 15.8148 17.6656 13.1313Z" fill="#333333"/>
</svg>
