<svg width="44px" height="44px" viewBox="0 0 24 26" fill="none" xmlns="http://www.w3.org/2000/svg">
<path d="M2 13.041C2 18.4855 6.42969 22.9152 11.8742 22.9152C17.3188 22.9152 21.7484 18.4855 21.7484 13.041C21.7484 7.59644 17.3188 3.16675 11.8742 3.16675C6.42969 3.16675 2 7.59644 2 13.041ZM14.5602 8.46128C15.2 9.02144 15.5211 9.79019 15.5188 10.7511C15.5188 11.5316 15.3102 12.1902 14.9094 12.7011C14.7688 12.8699 14.3188 13.2894 13.5688 13.9503C13.2594 14.2011 13.0391 14.4894 12.8984 14.78C12.7695 15.0121 12.6875 15.3542 12.6594 15.5511C12.6219 15.8066 12.4414 16.0011 12.2305 16.1113C12.1109 16.1816 11.9703 16.2214 11.8203 16.2214C11.6703 16.2214 11.5297 16.1816 11.4102 16.1113C11.15 15.9824 10.9461 15.7128 10.9508 15.3917C10.9531 15.1246 11.1102 14.5597 11.2508 14.3207C11.45 13.8707 12.0617 13.2097 13.0508 12.3308L13.3297 12.0308C13.6203 11.6605 13.7797 11.2714 13.7797 10.8613C13.7797 10.3011 13.618 9.87222 13.3086 9.55112C12.9898 9.23237 12.5281 9.06128 11.9492 9.06128C11.2297 9.06128 10.7 9.29097 10.3789 9.75034C10.1984 9.99175 10.0789 10.3011 10.0086 10.6714C9.92891 11.0816 9.59844 11.391 9.18828 11.391C8.71719 11.391 8.3375 11.0113 8.3375 10.5707C8.3375 10.5285 8.3461 10.4846 8.35446 10.4419L8.35859 10.4206C8.49922 9.70112 8.79922 9.1105 9.27969 8.63003C9.95 7.94097 10.8805 7.6105 12.0594 7.6105C13.0906 7.6105 13.9203 7.88237 14.5602 8.46128ZM12.6219 17.2925C12.8469 17.5011 12.9594 17.773 12.9594 18.1082C12.9594 18.4433 12.8305 18.7152 12.6078 18.9402C12.3852 19.1488 12.0945 19.2613 11.7758 19.2613C11.4547 19.2613 11.1664 19.1488 10.9438 18.9261C10.7211 18.7035 10.6086 18.4292 10.6086 18.1105C10.6086 17.773 10.7211 17.5011 10.9438 17.2949C11.1688 17.0699 11.457 16.9738 11.7758 16.9738C12.1109 16.9738 12.3992 17.0699 12.6219 17.2925Z" fill="#333333"/>
</svg>
