<svg width="44px" height="44px" viewBox="0 0 24 25" fill="none" xmlns="http://www.w3.org/2000/svg">
<path d="M18.7125 3.5H4.96406C3.88125 3.5 3 4.38125 3 5.46406V6.17656C3 7.13281 3.46406 8.0375 4.24453 8.59531L7.93594 11.232V18.2305C7.93594 19.0977 8.44219 19.8969 9.22734 20.2648L13.125 22.1023C13.3594 22.2125 13.6102 22.2687 13.8586 22.2687C14.1773 22.2687 14.4961 22.1773 14.7773 21.9992C15.2766 21.6828 15.5742 21.1414 15.5742 20.5484V11.2344L19.4062 8.55547C20.2008 8 20.6742 7.09062 20.6742 6.12031V5.46406C20.6766 4.38125 19.7953 3.5 18.7125 3.5Z" fill="#333333"/>
</svg>
