<svg width="44px" height="44px" viewBox="0 0 43 20" fill="none" xmlns="http://www.w3.org/2000/svg">
<path id="&#226;&#156;&#141;&#239;&#184;&#143;" d="M8.27795 14.2798C7.65814 13.1652 7.14488 12.2854 6.73818 11.6401L5.96932 19.669H4.12132L4.79222 12.366C4.1678 13.6272 3.46101 14.7857 2.67185 15.8415L1.0509 14.9397C2.63262 13.0333 3.89033 11.0462 4.82405 8.97849H2.22805L2.44014 7.17474H5.27814L5.89617 0.663633H7.78817L7.14814 7.17474H9.52414L9.33405 8.97849H6.98005L6.96242 9.24245C8.02856 10.7382 8.91566 12.0507 9.62372 13.1799L8.27795 14.2798ZM19.9986 4.66708L19.8474 6.16288H16.3274L16.2349 7.21873H20.8109L20.6608 8.78052H9.94676L10.0969 7.21873H14.2769L14.3694 6.16288H10.9814L11.1326 4.66708H14.4986L14.5694 3.63322H10.6754L10.8479 2.09344H14.6979L14.8282 0.663633H16.7642L16.6339 2.09344H20.6599L20.5094 3.63322H16.5274L16.4346 4.66708H19.9986ZM4.27061 2.13743L4.95482 6.25086H3.26082L2.64261 2.13743H4.27061ZM10.3646 2.13743L9.31082 6.25086H7.70482L8.75861 2.13743H10.3646ZM17.9686 9.6164C19.2446 9.6164 19.8342 10.2323 19.7373 11.4641L19.0763 18.0412C18.932 19.0678 18.4419 19.581 17.6059 19.581C16.5794 19.5957 15.5654 19.471 14.5637 19.2071L14.6888 17.4693C15.3669 17.6746 16.0362 17.7919 16.6967 17.8213H16.7627C16.8947 17.8213 16.9895 17.7919 17.0472 17.7333C17.1047 17.66 17.1466 17.5353 17.173 17.3593L17.2461 16.4575H11.9661L11.6633 19.4271H9.66131L10.4943 11.2882C10.5785 10.1737 11.2 9.6164 12.3586 9.6164H17.9686ZM17.7753 11.2222H12.4953L12.3822 12.366H17.6622L17.7753 11.2222ZM17.5107 13.8398H12.2307L12.1176 14.9837H17.3976L17.5107 13.8398ZM42.4482 7.90064L42.2383 9.83637H38.9383L38.6505 13.7078C38.6368 13.7665 38.6307 13.8398 38.6321 13.9278C38.6341 14.0451 38.6722 14.1331 38.7465 14.1918C38.8206 14.2358 38.9383 14.2578 39.0996 14.2578H39.4076C40.5223 14.2578 41.5458 14.0671 42.4781 13.6858L42.2484 15.7536C41.4608 16.0175 40.473 16.1495 39.285 16.1495H38.273C37.1583 16.1495 36.5931 15.6729 36.5772 14.7197C36.5743 14.5437 36.5795 14.4117 36.5927 14.3238L36.9143 9.83637H34.8683C34.5687 11.2295 34.1198 12.4613 33.5216 13.5319C32.9233 14.6024 32.118 15.5703 31.1057 16.4355L29.2835 15.3356C30.2951 14.4264 31.0512 13.5905 31.5519 12.828C32.1103 12.0067 32.5117 11.0095 32.7563 9.83637H29.9623L30.1502 7.90064H34.9902L35.1921 5.48097H31.5841C31.2907 5.48097 31.0773 5.43698 30.9439 5.34899C30.8104 5.261 30.742 5.11435 30.7386 4.90905C30.7361 4.7624 30.7628 4.60109 30.8185 4.42512L31.6937 1.47752H33.6957L33.2027 3.58923H35.3587L35.6174 0.619639H37.7954L37.5147 3.58923H41.9587L41.7701 5.48097H37.3481L37.1242 7.90064H42.4482ZM25.6335 0.861606L29.5383 2.84133L29.3335 5.08503L25.3627 3.1053L25.6335 0.861606ZM42.6725 17.4473L42.068 19.471H32.806C31.618 19.471 30.5137 19.2071 29.4929 18.6792C28.6941 18.2685 27.981 17.7186 27.3535 17.0294C26.8746 18.2172 26.3172 19.0971 25.6813 19.669L23.492 18.9871C24.1831 18.2099 24.735 17.44 25.1477 16.6774C25.5602 15.9002 25.8176 15.0643 25.9201 14.1698L26.4442 8.62654H23.9142L24.1219 6.55882H27.3339C27.7593 6.55882 28.084 6.68347 28.3081 6.93277C28.5467 7.16741 28.6697 7.51203 28.6773 7.96663C28.6799 8.12794 28.6747 8.25259 28.6615 8.34058L27.9929 14.4557L27.9543 14.7857C28.5241 15.5336 29.1865 16.1202 29.9415 16.5455C30.9782 17.1467 32.1858 17.4473 33.5645 17.4473H42.6725Z" fill="white"/>
</svg>
