<svg width="44px" height="44px" viewBox="0 0 16 17" fill="none" xmlns="http://www.w3.org/2000/svg">
<path fill-rule="evenodd" clip-rule="evenodd" d="M7.57989 4.43971L3.70656 8.31305C3.51123 8.50838 3.51123 8.82505 3.70656 9.02038L7.57989 12.893C7.67723 12.991 7.80523 13.0397 7.93323 13.0397C8.06123 13.0397 8.18923 12.991 8.28656 12.893C8.48189 12.6977 8.48189 12.3817 8.28656 12.1864L4.76723 8.66638L8.28656 5.14705C8.48189 4.95171 8.48189 4.63505 8.28656 4.43971C8.09123 4.24438 7.77523 4.24438 7.57989 4.43971ZM11.5799 4.43971L7.70656 8.31305C7.51123 8.50838 7.51123 8.82505 7.70656 9.02038L11.5799 12.893C11.6772 12.991 11.8052 13.0397 11.9332 13.0397C12.0612 13.0397 12.1892 12.991 12.2866 12.893C12.4819 12.6977 12.4819 12.3817 12.2866 12.1864L8.76723 8.66638L12.2866 5.14705C12.4819 4.95171 12.4819 4.63505 12.2866 4.43971C12.0912 4.24438 11.7752 4.24438 11.5799 4.43971Z" fill="#333333"/>
</svg>
