<svg width="44px" height="44px" viewBox="0 0 24 24" fill="none" xmlns="http://www.w3.org/2000/svg">
<path fill-rule="evenodd" clip-rule="evenodd" d="M19.0008 4.99922H16.0008V3.75C16.0008 3.33516 15.6656 3 15.2508 3C14.8359 3 14.5008 3.33516 14.5008 3.75V4.99922H9.49922V3.75C9.49922 3.33516 9.16406 3 8.74922 3C8.33438 3 7.99922 3.33516 7.99922 3.75V4.99922H4.99922C3.89531 4.99922 3 5.89453 3 6.99844V17.9977C3 19.1016 3.89531 19.9969 4.99922 19.9969H18.9984C20.1023 19.9969 20.9977 19.1016 20.9977 17.9977V6.99844C21 5.89453 20.1047 4.99922 19.0008 4.99922ZM19.5 18C19.5 18.2766 19.275 18.4992 19.0008 18.4992H4.99922C4.72266 18.4992 4.5 18.2742 4.5 18V6.99844C4.5 6.72187 4.725 6.49922 4.99922 6.49922H7.99922V7.24922C7.99922 7.66406 8.33438 7.99922 8.74922 7.99922C9.16406 7.99922 9.49922 7.66406 9.49922 7.24922V6.49922H14.4984V7.24922C14.4984 7.66406 14.8336 7.99922 15.2484 7.99922C15.6633 7.99922 15.9984 7.66406 15.9984 7.24922V6.49922H18.9984C19.275 6.49922 19.4977 6.72422 19.4977 6.99844V18H19.5ZM11.7563 14.0813L14.7633 11.0766C15.0562 10.7836 15.5297 10.7836 15.8227 11.0766C16.1156 11.3672 16.1156 11.843 15.8227 12.1359L12.2859 15.6727C12.1406 15.8203 11.9484 15.893 11.7563 15.893C11.5641 15.893 11.3719 15.818 11.2266 15.6727L8.87109 13.3148C8.57812 13.0242 8.58047 12.5484 8.87109 12.2555C9.16172 11.9625 9.6375 11.9625 9.93047 12.2555L11.7563 14.0813Z" fill="#333333"/>
</svg>
