<svg width="44px" height="44px" viewBox="0 0 24 25" fill="none" xmlns="http://www.w3.org/2000/svg">
<path fill-rule="evenodd" clip-rule="evenodd" d="M21.9002 12.2526L17.2736 4.2417C17.14 4.00967 16.8916 3.8667 16.6244 3.8667H7.37598C7.10879 3.8667 6.86035 4.00967 6.72676 4.2417L2.1002 12.2526C1.9666 12.4847 1.9666 12.7706 2.1002 13.0026L6.72676 21.0136C6.86035 21.2456 7.10879 21.3886 7.37598 21.3886H16.6268C16.8939 21.3886 17.1424 21.2456 17.276 21.0136L21.9002 13.0026C22.0338 12.7706 22.0338 12.4847 21.9002 12.2526ZM16.1932 19.8886H7.80723L3.6166 12.6276L7.80957 5.3667H16.1932L20.3838 12.6276L16.1932 19.8886ZM12.0002 8.61514C9.78769 8.61514 7.9877 10.4151 7.9877 12.6276C7.9877 14.8401 9.78769 16.6401 12.0002 16.6401C14.2127 16.6401 16.0127 14.8401 16.0127 12.6276C16.0127 10.4151 14.2127 8.61514 12.0002 8.61514ZM12.0002 15.1401C10.615 15.1401 9.4877 14.0128 9.4877 12.6276C9.4877 11.2425 10.615 10.1151 12.0002 10.1151C13.3854 10.1151 14.5127 11.2425 14.5127 12.6276C14.5127 14.0128 13.3854 15.1401 12.0002 15.1401Z" fill="#333333"/>
</svg>
