<svg width="44px" height="44px" viewBox="0 0 24 25" fill="none" xmlns="http://www.w3.org/2000/svg">
<path fill-rule="evenodd" clip-rule="evenodd" d="M16.4496 16.0546L20.2277 19.8351C20.5207 20.1281 20.5207 20.6015 20.2254 20.8945C20.0801 21.0421 19.8879 21.1148 19.6957 21.1148C19.5035 21.1148 19.3137 21.0421 19.166 20.8945L15.3855 17.114C13.9934 18.2578 12.2871 18.8296 10.5809 18.8296C8.64023 18.8296 6.69727 18.0914 5.21836 16.6125C2.26055 13.6546 2.26055 8.84292 5.21836 5.88511C8.17617 2.92729 12.9879 2.92729 15.9457 5.88511C18.7254 8.66245 18.8918 13.0781 16.4496 16.0546ZM4.49883 11.2476C4.49883 12.8742 5.13164 14.4023 6.28008 15.5507C7.42852 16.6992 8.95664 17.3343 10.5832 17.332C12.2098 17.332 13.7379 16.6992 14.8863 15.5507C16.0348 14.4 16.6676 12.8742 16.6676 11.2476C16.6676 9.62105 16.0348 8.09292 14.8863 6.94448C13.7355 5.79604 12.2074 5.16323 10.5832 5.16323C8.95664 5.16323 7.42852 5.79604 6.28008 6.94448C5.13164 8.09526 4.49883 9.62105 4.49883 11.2476Z" fill="#333333"/>
</svg>
