<svg width="44px" height="44px" viewBox="0 0 24 24" fill="none" xmlns="http://www.w3.org/2000/svg">
<path fill-rule="evenodd" clip-rule="evenodd" d="M4.96406 3H18.7125C19.7953 3 20.6766 3.88125 20.6742 4.96406V5.62031C20.6742 6.59062 20.2008 7.5 19.4062 8.05547L15.5742 10.7344V20.0484C15.5742 20.6414 15.2766 21.1828 14.7773 21.4992C14.4961 21.6773 14.1773 21.7687 13.8586 21.7687C13.6102 21.7687 13.3594 21.7125 13.125 21.6023L9.22734 19.7648C8.44219 19.3969 7.93594 18.5977 7.93594 17.7305V10.732L4.24453 8.09531C3.46406 7.5375 3 6.63281 3 5.67656V4.96406C3 3.88125 3.88125 3 4.96406 3ZM18.5484 6.82734C18.9422 6.55078 19.1766 6.10078 19.1766 5.62031H19.1742V4.96406C19.1742 4.70859 18.9656 4.5 18.7102 4.5H4.96406C4.70859 4.5 4.5 4.70859 4.5 4.96406V5.67656C4.5 6.15 4.72969 6.59766 5.11641 6.87422L8.81016 9.51094H11.5875C12.0023 9.51094 12.3375 9.84609 12.3375 10.2609C12.3375 10.6758 12.0023 11.0109 11.5875 11.0109H9.43359V17.7281C9.43359 18.0187 9.60469 18.2836 9.86484 18.4078L13.7625 20.2453C13.8586 20.2898 13.9359 20.2547 13.9734 20.2313C14.0109 20.2055 14.0742 20.1516 14.0742 20.0461V10.343C14.0742 10.0992 14.1937 9.86953 14.3953 9.72891L18.5484 6.82734Z" fill="#333333"/>
</svg>
