<svg width="44px" height="44px" viewBox="0 0 56 56" fill="none" xmlns="http://www.w3.org/2000/svg">
<g id="Remind-circle">
<path id="&#229;&#155;&#190;&#230;&#160;&#135;&#233;&#162;&#156;&#232;&#137;&#178;" fill-rule="evenodd" clip-rule="evenodd" d="M27.7068 4.66602C15.0029 4.66602 4.66699 15.002 4.66699 27.7059C4.66699 40.4098 15.0029 50.7457 27.7068 50.7457C40.4107 50.7457 50.7467 40.4098 50.7467 27.7059C50.7467 15.002 40.4107 4.66602 27.7068 4.66602ZM27.7068 47.2457C16.9334 47.2457 8.16699 38.4793 8.16699 27.7059C8.16699 16.9324 16.9334 8.16602 27.7068 8.16602C38.4803 8.16602 47.2467 16.9324 47.2467 27.7059C47.2467 38.4793 38.4803 47.2457 27.7068 47.2457ZM27.7451 15.5598C26.4873 15.5598 25.4592 16.6098 25.5303 17.8949C25.5303 17.8949 26.2084 33.3441 26.2303 33.4371C26.3943 34.159 27.0232 34.673 27.7451 34.673C28.4943 34.673 29.1232 34.159 29.2873 33.4371C29.3092 33.3441 29.9873 17.8949 29.9873 17.8949C30.0311 16.6098 29.0303 15.5598 27.7451 15.5598ZM27.7342 36.8824C26.9904 36.8824 26.3506 37.1066 25.8311 37.6316C25.2732 38.1184 25.0107 38.7527 25.0107 39.5348C25.0107 40.2785 25.2732 40.9184 25.8311 41.4379C26.3561 41.9629 26.9904 42.2199 27.7342 42.2199C28.4834 42.2199 29.1561 41.9574 29.7139 41.4707C30.2389 40.9457 30.4959 40.3113 30.4959 39.5293C30.4959 38.7418 30.2334 38.1074 29.7139 37.6262C29.1943 37.1066 28.5217 36.8824 27.7342 36.8824Z" fill="white" fill-opacity="0.6"/>
</g>
</svg>
