<svg width="44px" height="44px" viewBox="0 0 24 24" fill="none" xmlns="http://www.w3.org/2000/svg">
<path fill-rule="evenodd" clip-rule="evenodd" d="M5.44031 3.2002H18.4195C19.6549 3.2002 20.6609 4.20566 20.6609 5.44152V18.4207C20.6609 19.6566 19.6552 20.6618 18.4198 20.6618H5.44031C4.20516 20.6618 3.19922 19.6566 3.19922 18.4207V5.44129C3.19922 4.20543 4.20492 3.2002 5.44031 3.2002ZM9.53836 19.1679H18.4195C18.8311 19.1679 19.1667 18.8328 19.1667 18.421V9.45426H15.6298C15.2173 9.45426 14.8826 9.11957 14.8826 8.70707C14.8826 8.29457 15.2173 7.95988 15.6298 7.95988H19.167V5.44152C19.167 5.02949 18.8313 4.69434 18.4198 4.69434H5.44031C5.02875 4.69434 4.69313 5.02949 4.69313 5.44152V7.95965H11.9149C12.3274 7.95965 12.6621 8.29434 12.6621 8.70684C12.6621 9.11934 12.3274 9.45402 11.9149 9.45402H9.53859V13.6873C9.53859 14.0998 9.20391 14.4345 8.79141 14.4345C8.37891 14.4345 8.04422 14.0998 8.04422 13.6873V9.45402H4.69313V18.4207C4.69313 18.8328 5.02875 19.1679 5.44031 19.1679H8.04398V16.9268C8.04398 16.5143 8.37867 16.1796 8.79117 16.1796C9.20367 16.1796 9.53836 16.5143 9.53836 16.9268V19.1679Z" fill="#333333"/>
</svg>
