<svg width="44px" height="44px" viewBox="0 0 24 24" fill="none" xmlns="http://www.w3.org/2000/svg">
<path fill-rule="evenodd" clip-rule="evenodd" d="M6.5 4.75C6.08579 4.75 5.75 5.08579 5.75 5.5V18.9189L11.7373 16.6803C11.9067 16.617 12.0933 16.617 12.2627 16.6803L18.25 18.9189V5.5C18.25 5.08579 17.9142 4.75 17.5 4.75H6.5ZM4.25 5.5C4.25 4.25736 5.25736 3.25 6.5 3.25H17.5C18.7426 3.25 19.75 4.25736 19.75 5.5V20C19.75 20.2459 19.6295 20.4761 19.4275 20.6162C19.2255 20.7564 18.9676 20.7886 18.7373 20.7025L12 18.1835L5.26265 20.7025C5.03237 20.7886 4.77451 20.7564 4.5725 20.6162C4.3705 20.4761 4.25 20.2459 4.25 20V5.5ZM12 7.25C12.4142 7.25 12.75 7.58579 12.75 8V10.25H15C15.4142 10.25 15.75 10.5858 15.75 11C15.75 11.4142 15.4142 11.75 15 11.75H12.75V14C12.75 14.4142 12.4142 14.75 12 14.75C11.5858 14.75 11.25 14.4142 11.25 14V11.75H9C8.58579 11.75 8.25 11.4142 8.25 11C8.25 10.5858 8.58579 10.25 9 10.25H11.25V8C11.25 7.58579 11.5858 7.25 12 7.25Z" fill="#333333"/>
</svg>
