<svg width="44px" height="44px" viewBox="0 0 37 17" fill="none" xmlns="http://www.w3.org/2000/svg">
<path id="&#226;&#156;&#141;&#239;&#184;&#143;" d="M4.88759 16.7891C4.13959 16.7891 3.67714 16.3199 3.50024 15.3813L0.763655 0.269412H3.51366L5.94746 14.3695H7.79547L13.2597 0.269412H16.0977L10.1035 15.5793C9.93482 16.0192 9.72726 16.3272 9.48085 16.5032C9.23467 16.6938 8.93559 16.7891 8.58359 16.7891H4.88759ZM18.046 0.269412H20.642L18.892 16.7891H16.296L18.046 0.269412ZM30.9738 0.269412C32.4994 0.284077 33.6788 0.650693 34.512 1.36926C35.3597 2.07316 35.7946 3.09236 35.8167 4.42684C35.8228 4.79346 35.8129 5.07942 35.7869 5.28472L35.6735 6.40657C35.495 8.01968 34.8995 9.25884 33.8872 10.1241C32.8746 10.9746 31.5105 11.4072 29.7947 11.4219H25.3067L24.7357 16.7891H22.1397L23.8898 0.269412H30.9738ZM30.1066 9.00221C31.0157 8.98755 31.7091 8.78957 32.1867 8.40829C32.6642 8.01235 32.9545 7.3891 33.0577 6.53855L33.2115 5.19674C33.2245 5.09408 33.2295 4.95477 33.2266 4.77879C33.2146 4.06022 33.008 3.53963 32.6067 3.21701C32.2197 2.87972 31.6155 2.70374 30.7939 2.68908H26.2399L25.5526 9.00221H30.1066Z" fill="white"/>
</svg>
