<svg width="44px" height="44px" viewBox="0 0 24 25" fill="none" xmlns="http://www.w3.org/2000/svg">
<path d="M13.0584 12.6658L19.3584 6.36812C19.6514 6.07515 19.6514 5.59937 19.3584 5.30874C19.0654 5.01812 18.5896 5.01577 18.299 5.30874L11.999 11.6064L5.70137 5.3064C5.4084 5.01343 4.93262 5.01343 4.64199 5.3064C4.35137 5.59937 4.34902 6.07515 4.64199 6.36577L10.9396 12.6658L4.63965 18.9634C4.34668 19.2564 4.34668 19.7322 4.63965 20.0228C4.78496 20.1681 4.97715 20.2431 5.16934 20.2431C5.36152 20.2431 5.55371 20.1705 5.69902 20.0228L11.999 13.7251L18.2967 20.0251C18.442 20.1705 18.6342 20.2455 18.8264 20.2455C19.0186 20.2455 19.2107 20.1728 19.3561 20.0251C19.649 19.7322 19.649 19.2564 19.3561 18.9658L13.0584 12.6658Z" fill="#333333"/>
</svg>
