<svg width="44px" height="44px" viewBox="0 0 24 24" fill="none" xmlns="http://www.w3.org/2000/svg">
<path d="M9.49687 3H4.65703C3.74297 3 3 3.74297 3 4.65703V9.49687C3 10.4109 3.74297 11.1539 4.65703 11.1539H9.49687C10.4109 11.1539 11.1539 10.4109 11.1539 9.49687V4.65703C11.1539 3.74297 10.4109 3 9.49687 3ZM14.5031 3H19.343C20.257 3 21 3.74297 21 4.65703V9.49687C21 10.4109 20.257 11.1539 19.343 11.1539H14.5031C13.5891 11.1539 12.8461 10.4109 12.8461 9.49687V4.65703C12.8461 3.74297 13.5891 3 14.5031 3ZM19.343 9.65391C19.4297 9.65391 19.5 9.58359 19.5 9.49687V4.65703C19.5 4.57031 19.4297 4.5 19.343 4.5H14.5031C14.4164 4.5 14.3461 4.57031 14.3461 4.65703V9.49687C14.3461 9.58359 14.4164 9.65391 14.5031 9.65391H19.343ZM9.49687 9.65391H4.65703C4.57031 9.65391 4.5 9.58359 4.5 9.49687V4.65703C4.5 4.57031 4.57031 4.5 4.65703 4.5H9.49687C9.58359 4.5 9.65391 4.57031 9.65391 4.65703V9.49687C9.65391 9.58359 9.58359 9.65391 9.49687 9.65391ZM9.49687 12.8461H4.65703C3.74297 12.8461 3 13.5891 3 14.5031V19.343C3 20.257 3.74297 21 4.65703 21H9.49687C10.4109 21 11.1539 20.257 11.1539 19.343V14.5031C11.1539 13.5891 10.4109 12.8461 9.49687 12.8461ZM9.49687 19.5H4.65703C4.57031 19.5 4.5 19.4297 4.5 19.343V14.5031C4.5 14.4164 4.57031 14.3461 4.65703 14.3461H9.49687C9.58359 14.3461 9.65391 14.4164 9.65391 14.5031V19.343C9.65391 19.4297 9.58359 19.5 9.49687 19.5ZM14.7352 12.8461C14.3203 12.8461 13.9852 13.1813 13.9852 13.5961V20.25C13.9852 20.6648 14.3203 21 14.7352 21C15.15 21 15.4852 20.6648 15.4852 20.25V13.5961C15.4852 13.1813 15.15 12.8461 14.7352 12.8461ZM18.3609 13.5961C18.3609 13.1813 18.6961 12.8461 19.1109 12.8461C19.5234 12.8461 19.8609 13.1813 19.8609 13.5961V20.25C19.8609 20.6648 19.5258 21 19.1109 21C18.6961 21 18.3609 20.6648 18.3609 20.25V13.5961Z" fill="#333333"/>
</svg>
