<svg width="44px" height="44px" viewBox="0 0 24 24" fill="none" xmlns="http://www.w3.org/2000/svg">
<path fill-rule="evenodd" clip-rule="evenodd" d="M6 5.25C5.58579 5.25 5.25 5.58579 5.25 6V8.25C5.25 8.66421 4.91421 9 4.5 9C4.08579 9 3.75 8.66421 3.75 8.25V6C3.75 4.75736 4.75736 3.75 6 3.75H8.25C8.66421 3.75 9 4.08579 9 4.5C9 4.91421 8.66421 5.25 8.25 5.25H6ZM15 4.5C15 4.08579 15.3358 3.75 15.75 3.75H18C19.2426 3.75 20.25 4.75736 20.25 6V8.25C20.25 8.66421 19.9142 9 19.5 9C19.0858 9 18.75 8.66421 18.75 8.25V6C18.75 5.58579 18.4142 5.25 18 5.25H15.75C15.3358 5.25 15 4.91421 15 4.5ZM4.5 15C4.91421 15 5.25 15.3358 5.25 15.75V18C5.25 18.4142 5.58579 18.75 6 18.75H8.25C8.66421 18.75 9 19.0858 9 19.5C9 19.9142 8.66421 20.25 8.25 20.25H6C4.75736 20.25 3.75 19.2426 3.75 18V15.75C3.75 15.3358 4.08579 15 4.5 15ZM19.5 15C19.9142 15 20.25 15.3358 20.25 15.75V18C20.25 19.2426 19.2426 20.25 18 20.25H15.75C15.3358 20.25 15 19.9142 15 19.5C15 19.0858 15.3358 18.75 15.75 18.75H18C18.4142 18.75 18.75 18.4142 18.75 18V15.75C18.75 15.3358 19.0858 15 19.5 15Z" fill="#333333"/>
<path fill-rule="evenodd" clip-rule="evenodd" d="M5.41602 12C5.41602 11.5858 5.7518 11.25 6.16602 11.25H17.8327C18.2469 11.25 18.5827 11.5858 18.5827 12C18.5827 12.4142 18.2469 12.75 17.8327 12.75H6.16602C5.7518 12.75 5.41602 12.4142 5.41602 12Z" fill="#333333"/>
</svg>
