<svg width="44px" height="44px" viewBox="0 0 24 24" fill="none" xmlns="http://www.w3.org/2000/svg">
<path fill-rule="evenodd" clip-rule="evenodd" d="M19.0289 9.85078C19.0289 9.43594 19.3641 9.10078 19.7789 9.10078C20.1938 9.10078 20.5289 9.43594 20.5289 9.85078V18.2812C20.5289 19.5211 19.5187 20.5312 18.2789 20.5312H5.25C4.01016 20.5312 3 19.5211 3 18.2812V5.25C3 4.01016 4.01016 3 5.25 3H13.7789C14.1937 3 14.5289 3.33516 14.5289 3.75C14.5289 4.16484 14.1937 4.5 13.7789 4.5H5.25C4.8375 4.5 4.5 4.8375 4.5 5.25V18.2812C4.5 18.6938 4.8375 19.0312 5.25 19.0312H18.2789C18.6914 19.0312 19.0289 18.6938 19.0289 18.2812V9.85078ZM15.1266 9.26484C14.9344 9.26484 14.7422 9.18984 14.5969 9.04453C14.3039 8.75156 14.3039 8.27578 14.5969 7.98516L19.2609 3.32109C19.5516 3.02813 20.0273 3.03047 20.3203 3.32109C20.6133 3.61172 20.6133 4.0875 20.3203 4.38047L15.6562 9.04453C15.5109 9.19219 15.3188 9.26484 15.1266 9.26484ZM11.6719 10.8891C11.6719 11.3039 11.3367 11.6391 10.9219 11.6391H7.52109C7.10625 11.6391 6.77109 11.3039 6.77109 10.8891C6.77109 10.4742 7.10625 10.1391 7.52109 10.1391H10.9219C11.3367 10.1391 11.6719 10.4742 11.6719 10.8891ZM7.53047 15.6398H16.0031C16.418 15.6398 16.7531 15.3047 16.7531 14.8898C16.7531 14.475 16.418 14.1398 16.0031 14.1398H7.53047C7.11562 14.1398 6.78047 14.475 6.78047 14.8898C6.78047 15.3023 7.11562 15.6398 7.53047 15.6398Z" fill="#333333"/>
</svg>
