<svg width="44px" height="44px" viewBox="0 0 24 25" fill="none" xmlns="http://www.w3.org/2000/svg">
<path d="M2 7C2 5.89543 2.89543 5 4 5H16.6667C17.7712 5 18.6667 5.89543 18.6667 7V9.14286L21.1946 7.19274C21.5233 6.93916 22 7.17347 22 7.58863V17.5542C22 17.9694 21.5233 18.2037 21.1946 17.9501L18.6667 16V18C18.6667 19.1046 17.7712 20 16.6667 20H4C2.89543 20 2 19.1046 2 18V7ZM13.4148 12.9096C13.6992 12.7106 13.6992 12.2894 13.4148 12.0904L9.78673 9.55071C9.45534 9.31874 9 9.55582 9 9.96033V15.0397C9 15.4442 9.45534 15.6813 9.78673 15.4493L13.4148 12.9096Z" fill="#333333"/>
</svg>
