<svg width="44px" height="44px" viewBox="0 0 24 25" fill="none" xmlns="http://www.w3.org/2000/svg">
<path d="M11.4704 8.38413C11.6157 8.23882 11.8079 8.16616 12.0001 8.16616C12.1923 8.16616 12.3821 8.23882 12.5298 8.38413L18.3892 14.2083C18.6821 14.5013 18.6845 14.9748 18.3915 15.2677C18.1009 15.5607 17.6251 15.563 17.3321 15.2701L12.7501 10.7208V20.5857C12.7501 21.0005 12.4149 21.3357 12.0001 21.3357C11.5853 21.3357 11.2501 21.0005 11.2501 20.5857V10.7208L6.67041 15.2724C6.37744 15.5654 5.90166 15.563 5.60869 15.2701C5.31573 14.9771 5.31807 14.5013 5.61104 14.2107L11.4704 8.38413Z" fill="#333333"/>
<path d="M20.1211 6.66675H3.87891C3.46406 6.66675 3.12891 6.33159 3.12891 5.91675C3.12891 5.5019 3.46406 5.16675 3.87891 5.16675H20.1211C20.5359 5.16675 20.8711 5.5019 20.8711 5.91675C20.8711 6.33159 20.5359 6.66675 20.1211 6.66675Z" fill="#333333"/>
</svg>
