<svg width="44px" height="44px" viewBox="0 0 16 17" fill="none" xmlns="http://www.w3.org/2000/svg">
<path fill-rule="evenodd" clip-rule="evenodd" d="M3.70998 4.43971C3.90531 4.24438 4.22131 4.24438 4.41664 4.43971L8.28998 8.31305C8.48531 8.50838 8.48531 8.82505 8.28998 9.02038L4.41664 12.893C4.31931 12.991 4.19131 13.0397 4.06331 13.0397C3.93531 13.0397 3.80731 12.991 3.70998 12.893C3.51464 12.6977 3.51464 12.3817 3.70998 12.1864L7.22931 8.66638L3.70998 5.14705C3.51464 4.95171 3.51464 4.63505 3.70998 4.43971ZM8.41664 4.43971L12.29 8.31305C12.4853 8.50838 12.4853 8.82505 12.29 9.02038L8.41664 12.893C8.31931 12.991 8.19131 13.0397 8.06331 13.0397C7.93531 13.0397 7.80731 12.991 7.70998 12.893C7.51464 12.6977 7.51464 12.3817 7.70998 12.1864L11.2293 8.66638L7.70998 5.14705C7.51464 4.95171 7.51464 4.63505 7.70998 4.43971C7.90531 4.24438 8.22131 4.24438 8.41664 4.43971Z" fill="#333333"/>
</svg>
