<svg width="44px" height="44px" viewBox="0 0 24 24" fill="none" xmlns="http://www.w3.org/2000/svg">
<path fill-rule="evenodd" clip-rule="evenodd" d="M12.343 10.5024L15.2703 7.57509L14.6469 5.82431C14.5484 5.55009 14.6164 5.2454 14.8227 5.0415L17.6445 2.21962C17.825 2.03915 18.0875 1.96181 18.3383 2.01806C18.5891 2.07431 18.793 2.25712 18.8797 2.49853L19.5453 4.36181L21.4086 5.02743C21.6523 5.11415 21.8328 5.31806 21.8891 5.56884C21.9453 5.81962 21.8703 6.07978 21.6875 6.26259L18.8656 9.08446C18.7227 9.22743 18.5305 9.30478 18.3359 9.30478C18.2492 9.30478 18.1648 9.28837 18.0828 9.26025L16.3297 8.63446L13.4023 11.5618C13.257 11.7095 13.0648 11.7821 12.8727 11.7821C12.6805 11.7821 12.4883 11.7071 12.343 11.5618C12.05 11.2712 12.05 10.7954 12.343 10.5024ZM18.2539 5.20087L17.8672 4.11806L16.2172 5.76571L16.7234 7.18134L18.1414 7.68759L19.7891 6.04228L18.7086 5.65556C18.4977 5.58056 18.3289 5.41181 18.2539 5.20087ZM20.9984 11.2829C20.5836 11.2829 20.2484 11.6181 20.2484 12.0329C20.2484 16.6501 16.4914 20.4071 11.8742 20.4071C7.25703 20.4071 3.5 16.6501 3.5 12.0329C3.5 7.41571 7.25703 3.65868 11.8742 3.65868C12.2891 3.65868 12.6242 3.32353 12.6242 2.90868C12.6242 2.49384 12.2891 2.15868 11.8742 2.15868C6.42969 2.15868 2 6.58837 2 12.0329C2 17.4774 6.42969 21.9071 11.8742 21.9071C17.3188 21.9071 21.7484 17.4774 21.7484 12.0329C21.7484 11.6181 21.4133 11.2829 20.9984 11.2829ZM12.6242 8.17743C12.6242 8.59228 12.2891 8.92743 11.8742 8.92743C10.1633 8.92743 8.76875 10.3196 8.76875 12.0329C8.76875 13.7462 10.1609 15.1384 11.8742 15.1384C13.5875 15.1384 14.9797 13.7438 14.9797 12.0329C14.9797 11.6181 15.3148 11.2829 15.7297 11.2829C16.1445 11.2829 16.4797 11.6181 16.4797 12.0329C16.4797 14.5735 14.4148 16.6384 11.8742 16.6384C9.33359 16.6384 7.26875 14.5735 7.26875 12.0329C7.26875 9.49228 9.33594 7.42743 11.8742 7.42743C12.2891 7.42743 12.6242 7.76259 12.6242 8.17743Z" fill="#333333"/>
</svg>
