<svg width="44px" height="44px" viewBox="0 0 23 24" fill="none" xmlns="http://www.w3.org/2000/svg">
<path fill-rule="evenodd" clip-rule="evenodd" d="M10.7025 12.0143L11.936 8.37465C11.9716 8.2692 12.0294 8.17342 12.1051 8.09434L12.4475 7.73715C12.1454 7.65957 11.8383 7.60262 11.523 7.59184C10.3269 7.54309 9.18725 7.99801 8.31396 8.8516C7.44113 9.70496 6.93913 10.8623 6.90072 12.1104C6.82121 14.6871 8.76633 16.8522 11.2361 16.9366C12.4329 16.9767 13.5721 16.53 14.4458 15.6768C15.3186 14.8232 15.8206 13.6661 15.859 12.4186C15.8725 11.9625 16.2267 11.5978 16.6746 11.6203C17.1112 11.6348 17.4535 12.0161 17.4396 12.4713C17.3875 14.1604 16.7081 15.7263 15.5266 16.8811C14.395 17.9875 12.9324 18.5896 11.3882 18.5896C11.3204 18.5896 11.2525 18.5885 11.1847 18.5861C7.84363 18.472 5.21256 15.5432 5.32015 12.0579C5.37226 10.3687 6.0517 8.80238 7.23314 7.64762C8.41414 6.49285 9.95833 5.88301 11.5751 5.94254C12.2134 5.96457 12.8385 6.08902 13.4324 6.31262C13.5229 6.34684 13.5995 6.40145 13.6691 6.46262L15.1619 4.90496C15.102 4.87139 15.0432 4.83592 14.9844 4.80048C14.8783 4.73645 14.7724 4.67255 14.6608 4.6202C13.3374 4.00027 11.8713 3.76871 10.423 3.94988C8.29465 4.21637 6.39311 5.33223 5.06881 7.09145C3.74451 8.8502 3.15626 11.0421 3.41186 13.2632C3.9397 17.8483 7.94628 21.1305 12.3374 20.5793C16.731 20.0285 19.876 15.85 19.3486 11.2657C19.3014 10.8546 19.5826 10.481 19.9766 10.4318C20.3658 10.3767 20.7281 10.676 20.7757 11.0871C21.3977 16.4927 17.6894 21.419 12.5088 22.0685C12.1278 22.1163 11.7489 22.1393 11.374 22.1397C6.65545 22.1397 2.56149 18.45 1.98492 13.4421C1.6835 10.8234 2.37754 8.23895 3.93857 6.16473C5.50006 4.09051 7.74233 2.7752 10.2519 2.46066C11.9607 2.24621 13.6884 2.52066 15.2499 3.25215C15.585 3.40895 15.9026 3.60535 16.2186 3.80223L17.7352 2.21973C18.016 1.92676 18.4708 1.92676 18.7516 2.21973L20.888 4.44934C21.1688 4.7423 21.1688 5.21691 20.888 5.50988L15.2584 11.3845C15.1897 11.4562 15.1077 11.5125 15.0179 11.5504L11.6478 12.9607C11.5611 12.9968 11.4704 13.0143 11.3801 13.0143C11.1946 13.0144 11.0163 12.9395 10.8826 12.8053C10.6787 12.6016 10.6083 12.292 10.7025 12.0143ZM19.3636 4.97973L18.2433 3.81066L13.2367 9.03488L12.5874 10.9509L14.3458 10.215L19.3636 4.97973Z" fill="#333333"/>
</svg>
