<svg width="44px" height="44px" viewBox="0 0 24 24" fill="none" xmlns="http://www.w3.org/2000/svg">
<path fill-rule="evenodd" clip-rule="evenodd" d="M16.0336 7.27266C16.0336 9.62813 14.1164 11.5453 11.7609 11.5453C9.40547 11.5453 7.48828 9.62813 7.48828 7.27266C7.48828 4.91719 9.40547 3 11.7609 3C14.1164 3 16.0336 4.91719 16.0336 7.27266ZM14.5336 7.275C14.5336 5.74687 13.2891 4.50234 11.7609 4.50234C10.2328 4.50234 8.98828 5.74687 8.98828 7.275C8.98828 8.80312 10.2328 10.0477 11.7609 10.0477C13.2891 10.0477 14.5336 8.80312 14.5336 7.275ZM11.7609 12.9844H8.55703C5.49375 12.9844 3 15.4781 3 18.5414V19.7836C3 20.1984 3.33516 20.5336 3.75 20.5336C4.16484 20.5336 4.5 20.1984 4.5 19.7836V18.5414C4.5 16.3055 6.31875 14.4844 8.55703 14.4844H11.7609C12.1758 14.4844 12.5109 14.1492 12.5109 13.7344C12.5109 13.3219 12.1758 12.9844 11.7609 12.9844ZM17.8114 16.7742L19.6129 18.5757C19.9062 18.869 19.9062 19.343 19.6129 19.6363C19.3196 19.9297 18.8456 19.9297 18.5522 19.6363L16.7508 17.8349L14.9493 19.6363C14.656 19.9297 14.182 19.9297 13.8887 19.6363C13.5953 19.343 13.5953 18.869 13.8887 18.5757L15.6901 16.7742L13.8887 14.9728C13.5953 14.6794 13.5953 14.2054 13.8887 13.9121C14.182 13.6188 14.656 13.6188 14.9493 13.9121L16.7508 15.7136L18.5522 13.9121C18.8456 13.6188 19.3196 13.6188 19.6129 13.9121C19.9062 14.2054 19.9062 14.6794 19.6129 14.9728L17.8114 16.7742Z" fill="#333333"/>
</svg>
