<svg width="44px" height="44px" viewBox="0 0 24 25" fill="none" xmlns="http://www.w3.org/2000/svg">
<path fill-rule="evenodd" clip-rule="evenodd" d="M12.6117 1.66675V3.9519C17.0203 4.39253 20.475 8.12378 20.475 12.6472C20.475 14.1003 20.1094 15.5417 19.4203 16.8121C19.2844 17.0628 19.0289 17.2035 18.7617 17.2035C18.6422 17.2035 18.5203 17.173 18.4055 17.1121C18.0398 16.9152 17.9062 16.4582 18.1031 16.0949C18.6727 15.0425 18.975 13.8496 18.975 12.6449C18.975 8.95112 16.1906 5.9019 12.6141 5.46597V7.65034L7.43203 4.65737L12.6117 1.66675ZM4.5 12.6449C4.5 16.3386 7.28438 19.3902 10.8609 19.8238V17.6394L16.043 20.6324L10.8609 23.623V21.3378C6.45234 20.8972 3 17.166 3 12.6449C3 11.1097 3.40547 9.598 4.16953 8.27612C4.37812 7.91753 4.8375 7.79565 5.19375 8.0019C5.55234 8.20815 5.67422 8.66753 5.46797 9.02612C4.83516 10.1207 4.5 11.3722 4.5 12.6449Z" fill="#333333"/>
</svg>
