<svg width="44px" height="44px" viewBox="0 0 24 25" fill="none" xmlns="http://www.w3.org/2000/svg">
<path d="M22.523 11.7566H20.9926C20.6293 7.38086 17.1348 3.88398 12.7566 3.52305V1.99023C12.7566 1.57539 12.4215 1.24023 12.0066 1.24023C11.5918 1.24023 11.2566 1.57539 11.2566 1.99023V3.5207C6.88086 3.88398 3.38633 7.38086 3.02305 11.7566H1.49023C1.07539 11.7566 0.740234 12.0918 0.740234 12.5066C0.740234 12.9215 1.07539 13.2566 1.49023 13.2566H3.0207C3.38398 17.6324 6.88086 21.1293 11.2566 21.4902V23.0207C11.2566 23.4355 11.5918 23.7707 12.0066 23.7707C12.4215 23.7707 12.7566 23.4355 12.7566 23.0207V21.4902C17.1348 21.1293 20.6293 17.6324 20.9902 13.2566H22.5207C22.9355 13.2566 23.2707 12.9215 23.2707 12.5066C23.273 12.0918 22.9355 11.7566 22.523 11.7566ZM12.0066 9.78789C10.5043 9.78789 9.28789 11.0066 9.28789 12.5066C9.28789 14.009 10.5066 15.2254 12.0066 15.2254C13.5066 15.2254 14.7254 14.0066 14.7254 12.5066C14.7277 11.0043 13.509 9.78789 12.0066 9.78789ZM4.4832 12.5043C4.4832 8.35586 7.8582 4.9832 12.0066 4.9832C16.1551 4.9832 19.5301 8.3582 19.5301 12.5066C19.5301 16.6551 16.1551 20.0277 12.0066 20.0277C7.8582 20.0277 4.4832 16.6527 4.4832 12.5043Z" fill="#333333"/>
</svg>
