<svg width="44px" height="44px" viewBox="0 0 32 32" fill="none" xmlns="http://www.w3.org/2000/svg">
<g id="&#233;&#128;&#154;&#231;&#148;&#168;/&#231;&#187;&#188;&#229;&#144;&#136;/data">
<path id="&#229;&#155;&#190;&#230;&#160;&#135;&#233;&#162;&#156;&#232;&#137;&#178;" fill-rule="evenodd" clip-rule="evenodd" d="M6.10645 24.077H27.8939C28.4471 24.077 28.8971 24.527 28.8971 25.0801C28.8971 25.6332 28.4502 26.0801 27.8971 26.0801H6.10645C4.45332 26.0801 3.10645 24.7332 3.10645 23.0801V6.33325C3.10645 5.78013 3.55332 5.33325 4.10645 5.33325C4.65957 5.33325 5.10645 5.78013 5.10645 6.33325V23.077C5.10645 23.627 5.55645 24.077 6.10645 24.077ZM10.4471 17.852C10.2533 18.0426 10.0002 18.1364 9.74707 18.1364C9.4877 18.1364 9.2252 18.0364 9.03145 17.8364C8.64707 17.4426 8.65332 16.8114 9.04707 16.4239L14.9221 10.6614C15.1096 10.477 15.3814 10.377 15.6346 10.377C15.9002 10.3833 16.1564 10.4926 16.3408 10.6833L19.4408 13.8864L24.5408 8.627C24.9252 8.23013 25.5564 8.22075 25.9533 8.60513C26.3502 8.98638 26.3596 9.62075 25.9752 10.0176L20.1564 16.0239C19.9689 16.2176 19.7096 16.327 19.4377 16.327C19.1658 16.327 18.9064 16.2145 18.7189 16.0208L15.6033 12.7989L10.4471 17.852Z" fill="#266EFF"/>
</g>
</svg>
