<svg width="44px" height="44px" viewBox="0 0 24 26" fill="none" xmlns="http://www.w3.org/2000/svg">
<path d="M1.99902 13.0417C1.99902 18.4857 6.42902 22.9157 11.874 22.9157C17.319 22.9157 21.749 18.4857 21.749 13.0417C21.749 7.59675 17.319 3.16675 11.874 3.16675C6.42902 3.16675 1.99902 7.59675 1.99902 13.0417ZM11.874 4.66675C16.492 4.66675 20.249 8.42375 20.249 13.0417C20.249 17.6587 16.492 21.4157 11.874 21.4157C7.25602 21.4157 3.49902 17.6587 3.49902 13.0417C3.49902 8.42375 7.25602 4.66675 11.874 4.66675ZM10.6431 16.5412C10.4511 16.5412 10.2591 16.4682 10.1131 16.3212L7.07512 13.2842C6.78212 12.9912 6.78212 12.5162 7.07512 12.2232C7.36812 11.9302 7.84312 11.9302 8.13612 12.2232L10.6431 14.7302L15.6121 9.76125C15.9051 9.46825 16.3801 9.46825 16.6731 9.76125C16.9661 10.0542 16.9661 10.5292 16.6731 10.8222L11.1731 16.3212C11.0271 16.4682 10.8351 16.5412 10.6431 16.5412Z" fill="#333333"/>
</svg>
