<svg width="44px" height="44px" viewBox="0 0 24 24" fill="none" xmlns="http://www.w3.org/2000/svg">
<path fill-rule="evenodd" clip-rule="evenodd" d="M17.5711 9.78906C17.5711 12.9086 15.0328 15.4492 11.9109 15.4492C8.78906 15.4492 6.25078 12.9086 6.25078 9.78906V6.66016C6.25078 3.53828 8.79141 1 11.9109 1C15.0305 1 17.5711 3.53828 17.5711 6.66016V9.78906ZM11.9109 2.5C9.61641 2.5 7.75078 4.36562 7.75078 6.66016V9.78906C7.75078 12.0836 9.61641 13.9492 11.9109 13.9492C14.2055 13.9492 16.0711 12.0836 16.0711 9.78906V6.66016C16.0711 4.36562 14.2055 2.5 11.9109 2.5ZM10.3313 10.6187C10.7461 10.6187 11.0813 10.2836 11.0813 9.86875V6.57812C11.0813 6.16328 10.7461 5.82812 10.3313 5.82812C9.91641 5.82812 9.58125 6.16328 9.58125 6.57812V9.86875C9.58125 10.2836 9.91641 10.6187 10.3313 10.6187ZM20.0719 9.02969C20.4867 9.02969 20.8219 9.36484 20.8219 9.77969C20.8219 14.4391 17.2242 18.2688 12.6609 18.6508V22.9633C12.6609 23.3781 12.3258 23.7133 11.9109 23.7133C11.4961 23.7133 11.1609 23.3781 11.1609 22.9633V18.6508C6.59766 18.2688 3 14.4391 3 9.77969C3 9.36484 3.33516 9.02969 3.75 9.02969C4.16484 9.02969 4.5 9.36484 4.5 9.77969C4.5 13.8648 7.82344 17.1883 11.9109 17.1883C15.9984 17.1883 19.3219 13.8648 19.3219 9.77969C19.3219 9.36484 19.657 9.02969 20.0719 9.02969Z" fill="#333333"/>
</svg>
