<svg width="44px" height="44px" viewBox="0 0 32 32" fill="none" xmlns="http://www.w3.org/2000/svg">
<path fill-rule="evenodd" clip-rule="evenodd" d="M7.07712 23.9998L11.4563 24.2145H11.5109C11.8005 24.2145 12.0766 24.0986 12.281 23.8941L21.1189 15.0563C21.3141 14.861 21.3141 14.5444 21.1189 14.3492L14.3563 7.58657C14.161 7.39129 13.8444 7.39131 13.6491 7.58662L4.81425 16.4239C4.59614 16.642 4.48027 16.9419 4.49731 17.2486L4.71201 21.6278C4.77335 22.916 5.78892 23.935 7.07712 23.9998ZM16.0865 5.14857C15.8913 5.34384 15.8913 5.66038 16.0866 5.85562L22.8495 12.6185C23.0448 12.8138 23.3613 12.8138 23.5566 12.6185L24.8973 11.2779C26.1718 10.0033 26.1718 7.9279 24.8973 6.64992L22.055 3.8077C20.8179 2.57061 18.6641 2.57061 17.427 3.8077L16.0865 5.14857ZM25.906 27.687H5.48556C4.88236 27.687 4.39502 28.1744 4.39502 28.7776C4.39502 29.3808 4.88236 29.8681 5.48556 29.8681H25.9094C26.5126 29.8681 26.9999 29.3808 26.9999 28.7776C26.9965 28.1778 26.5092 27.687 25.906 27.687Z" fill="black"/>
</svg>
