<svg width="44px" height="44px" viewBox="0 0 24 24" fill="none" xmlns="http://www.w3.org/2000/svg">
<path fill-rule="evenodd" clip-rule="evenodd" d="M4.5 15.412C4.5 17.102 7.589 18.984 12.021 18.984C16.453 18.984 19.542 17.102 19.542 15.412C19.542 15.176 19.484 14.94 19.375 14.706C17.754 15.988 15.093 16.813 12.021 16.813C8.949 16.813 6.288 15.988 4.667 14.706C4.558 14.94 4.5 15.176 4.5 15.412ZM19.542 8.071C19.542 6.382 16.453 4.5 12.021 4.5C7.589 4.5 4.5 6.382 4.5 8.071C4.5 9.76 7.589 11.642 12.021 11.642C16.453 11.642 19.542 9.76 19.542 8.071ZM4.667 11.035C4.558 11.269 4.5 11.505 4.5 11.742C4.5 13.431 7.589 15.313 12.021 15.313C16.453 15.313 19.542 13.431 19.542 11.742C19.542 11.505 19.484 11.269 19.375 11.035C17.754 12.317 15.093 13.142 12.021 13.142C8.949 13.142 6.288 12.317 4.667 11.035ZM21.042 8.071C21.042 8.72 20.827 9.334 20.448 9.9C20.834 10.479 21.042 11.106 21.042 11.742C21.042 12.391 20.827 13.005 20.448 13.57C20.835 14.15 21.042 14.776 21.042 15.412C21.042 18.256 17.079 20.484 12.021 20.484C6.963 20.484 3 18.256 3 15.412C3 14.777 3.208 14.151 3.594 13.57C3.216 13.005 3 12.391 3 11.742C3 11.106 3.207 10.479 3.594 9.9C3.215 9.334 3 8.72 3 8.071C3 5.227 6.963 3 12.021 3C17.079 3 21.042 5.227 21.042 8.071ZM12.771 9.8307C12.771 10.2447 12.435 10.5807 12.021 10.5807C9.016 10.5807 5.983 9.8047 5.983 8.0707C5.983 7.6567 6.319 7.3207 6.733 7.3207C7.147 7.3207 7.483 7.6567 7.483 8.0707C7.612 8.3267 9.165 9.0807 12.021 9.0807C12.435 9.0807 12.771 9.4167 12.771 9.8307Z" fill="#333333"/>
</svg>
