<svg width="44px" height="44px" viewBox="0 0 24 24" fill="none" xmlns="http://www.w3.org/2000/svg">
<path d="M17.9398 6.9H19.475C20.7172 6.9 21.725 7.91016 21.7273 9.15V18.4383C21.7273 19.6781 20.7172 20.6883 19.4773 20.6883H4.25C3.01016 20.6883 2 19.6781 2 18.4383V9.15C2 7.91016 3.01016 6.9 4.25 6.9H5.78516L6.35234 4.69219C6.60781 3.69609 7.50312 3 8.53203 3H15.193C16.2219 3 17.1172 3.69375 17.3727 4.68984L17.9398 6.9ZM8.53203 4.5C8.18984 4.5 7.88984 4.73203 7.80547 5.06484L7.33437 6.9H16.393L15.9219 5.0625C15.8375 4.73203 15.5375 4.5 15.1953 4.5H8.53203ZM20.225 18.4406H20.2297V9.15C20.2297 8.7375 19.8922 8.4 19.4797 8.4H4.25C3.8375 8.4 3.5 8.7375 3.5 9.15V18.4406C3.5 18.8531 3.8375 19.1906 4.25 19.1906H19.475C19.8875 19.1906 20.225 18.8531 20.225 18.4406ZM17.007 10.807C17.007 10.3031 17.4148 9.89531 17.9187 9.89531C18.4203 9.89531 18.8305 10.3031 18.8305 10.807C18.8305 11.3109 18.4227 11.7188 17.9187 11.7188C17.4148 11.7188 17.007 11.3109 17.007 10.807ZM8.52031 13.7953C8.52031 11.9531 10.0203 10.4531 11.8625 10.4531C13.7047 10.4531 15.2047 11.9531 15.2047 13.7953C15.2047 15.6375 13.7047 17.1375 11.8625 17.1375C10.0203 17.1375 8.52031 15.6375 8.52031 13.7953ZM11.8625 15.6375C12.8773 15.6375 13.7047 14.8102 13.7047 13.7953C13.7047 12.7805 12.8773 11.9531 11.8625 11.9531C10.8477 11.9531 10.0203 12.7781 10.0203 13.7953C10.0203 14.8102 10.8453 15.6375 11.8625 15.6375Z" fill="#333333"/>
</svg>
