<svg width="44px" height="44px" viewBox="0 0 56 56" fill="none" xmlns="http://www.w3.org/2000/svg">
<path d="M4.66504 27.7053C4.66504 15.0027 15.0017 4.66602 27.7067 4.66602C40.4117 4.66602 50.7484 15.0027 50.7484 27.7053C50.7484 40.4103 40.4117 50.747 27.7067 50.747C15.0017 50.747 4.66504 40.4103 4.66504 27.7053ZM27.7067 47.247C38.482 47.247 47.2484 38.4807 47.2484 27.7053C47.2484 16.9323 38.482 8.16602 27.7067 8.16602C16.9314 8.16602 8.16504 16.9323 8.16504 27.7053C8.16504 38.4807 16.9314 47.247 27.7067 47.247ZM37.2416 18.7936C36.558 18.11 35.4496 18.11 34.766 18.7936L27.7076 25.8543L20.647 18.7936C19.9633 18.11 18.855 18.11 18.1713 18.7936C17.4876 19.4773 17.4876 20.5856 18.1713 21.2693L25.232 28.3277L18.1713 35.3883C17.4876 36.072 17.4876 37.1803 18.1713 37.864C18.5143 38.2047 18.9623 38.3773 19.408 38.3773C19.856 38.3773 20.304 38.2047 20.647 37.864L27.7076 30.8033L34.766 37.864C35.109 38.2047 35.557 38.3773 36.005 38.3773C36.453 38.3773 36.901 38.2047 37.2416 37.864C37.9253 37.1803 37.9253 36.072 37.2416 35.3883L30.181 28.3277L37.2416 21.2693C37.9253 20.5856 37.9253 19.4773 37.2416 18.7936Z" fill="black" fill-opacity="0.6"/>
</svg>
