<svg width="44px" height="44px" viewBox="0 0 24 24" fill="none" xmlns="http://www.w3.org/2000/svg">
<path fill-rule="evenodd" clip-rule="evenodd" d="M11.5805 2C6.84844 2 3 5.84844 3 10.5805C3 14.7406 8.1 19.0203 10.2961 20.8625C10.6664 21.1719 11.1188 21.3289 11.5734 21.3289C12.0352 21.3289 12.4969 21.1695 12.8813 20.8484L12.8886 20.8423C15.07 19.0107 20.1586 14.7383 20.1586 10.5805C20.1609 5.84844 16.3102 2 11.5805 2ZM11.8992 19.7117C11.7117 19.8711 11.4492 19.8711 11.243 19.6977C9.39844 18.1508 4.5 14.0398 4.5 10.5805C4.5 6.67578 7.67578 3.5 11.5805 3.5C15.4852 3.5 18.6609 6.67578 18.6609 10.5805C18.6609 14.0398 13.7625 18.1508 11.8992 19.7117ZM11.5805 6.82812C9.51328 6.82812 7.83047 8.51094 7.83047 10.5781C7.83047 12.6453 9.51328 14.3281 11.5805 14.3281C13.6477 14.3281 15.3305 12.6453 15.3305 10.5781C15.3305 8.51094 13.6477 6.82812 11.5805 6.82812ZM11.5805 12.8281C10.3406 12.8281 9.33047 11.818 9.33047 10.5781C9.33047 9.33828 10.3406 8.32812 11.5805 8.32812C12.8203 8.32812 13.8305 9.33828 13.8305 10.5781C13.8305 11.818 12.8203 12.8281 11.5805 12.8281Z" fill="#333333"/>
</svg>
