<svg width="44px" height="44px" viewBox="0 0 24 24" fill="none" xmlns="http://www.w3.org/2000/svg">
<path fill-rule="evenodd" clip-rule="evenodd" d="M20.3019 3.03947C20.5714 2.94806 20.8714 3.01837 21.0729 3.21993C21.2745 3.4215 21.3448 3.7215 21.2534 3.99103L15.387 21.2832C15.2862 21.5738 15.0214 21.7754 14.7144 21.7918H14.6769C14.3839 21.7918 14.1167 21.6207 13.9948 21.3535L10.519 13.7738L2.93701 10.2981C2.6581 10.1715 2.48466 9.88556 2.50107 9.57853C2.51748 9.2715 2.71904 9.00431 3.00966 8.90587L20.3019 3.03947ZM11.9839 13.3684L14.5714 19.0145L19.3433 4.94962L5.27841 9.7215L10.9245 12.309L13.7347 9.49884C14.0253 9.20587 14.5011 9.20821 14.794 9.49884C15.087 9.78946 15.087 10.2652 14.794 10.5582L11.9839 13.3684Z" fill="#333333"/>
</svg>
