<svg width="44px" height="44px" viewBox="0 0 40 40" fill="none" xmlns="http://www.w3.org/2000/svg">
<path fill-rule="evenodd" clip-rule="evenodd" d="M19.1207 2.62301C19.4989 1.92482 20.5009 1.92482 20.8792 2.62301L25.9792 12.0365C26.1232 12.3024 26.3798 12.4888 26.6771 12.5436L37.2059 14.485C37.9868 14.629 38.2964 15.582 37.7493 16.1575L30.3725 23.9168C30.1642 24.1359 30.0662 24.4376 30.1059 24.7373L31.513 35.3507C31.6174 36.1379 30.8068 36.7268 30.0904 36.3843L20.4312 31.7663C20.1585 31.6359 19.8413 31.6359 19.5686 31.7663L9.90945 36.3843C9.19305 36.7268 8.38243 36.1379 8.48679 35.3507L9.89392 24.7373C9.93365 24.4376 9.83565 24.1359 9.62734 23.9168L2.25055 16.1575C1.70342 15.582 2.01305 14.629 2.79396 14.485L13.3227 12.5436C13.6201 12.4888 13.8766 12.3024 14.0206 12.0365L19.1207 2.62301Z" fill="#D9D9D9"/>
</svg>
