<svg width="44px" height="44px" viewBox="0 0 24 25" fill="none" xmlns="http://www.w3.org/2000/svg">
<path fill-rule="evenodd" clip-rule="evenodd" d="M5.75937 8.16675H19.0016C19.4164 8.16675 19.7516 7.83159 19.7516 7.41675C19.7516 7.0019 19.4164 6.66675 19.0016 6.66675H5.75937C5.34453 6.66675 5.00938 7.0019 5.00938 7.41675C5.00938 7.82925 5.34453 8.16675 5.75937 8.16675ZM5.75 13.166H18.9922C19.407 13.166 19.7422 12.8308 19.7422 12.416C19.7422 12.0011 19.407 11.666 18.9922 11.666H5.75C5.33516 11.666 5 12.0011 5 12.416C5 12.8308 5.3375 13.166 5.75 13.166ZM5.75937 16.6652H19.0016C19.4141 16.6652 19.7516 17.0027 19.7516 17.4152C19.7516 17.83 19.4164 18.1652 19.0016 18.1652H5.75937C5.34453 18.1652 5.00938 17.83 5.00938 17.4152C5.00938 17.0003 5.34453 16.6652 5.75937 16.6652Z" fill="#333333"/>
</svg>
