<svg width="44px" height="44px" viewBox="0 0 24 24" fill="none" xmlns="http://www.w3.org/2000/svg">
<path fill-rule="evenodd" clip-rule="evenodd" d="M5.25 19.0312H11.7516C12.1641 19.0312 12.4992 19.3664 12.4992 19.7812C12.4992 20.1961 12.1641 20.5312 11.7492 20.5312H5.25C4.01016 20.5312 3 19.5211 3 18.2812V5.25C3 4.01016 4.01016 3 5.25 3H17.0437C18.2836 3 19.2938 4.01016 19.2938 5.25V11.7492C19.2938 12.1641 18.9586 12.4992 18.5437 12.4992C18.1289 12.4992 17.7937 12.1641 17.7937 11.7492V5.25C17.7937 4.8375 17.4563 4.5 17.0437 4.5H5.25C4.8375 4.5 4.5 4.8375 4.5 5.25V18.2812C4.5 18.6938 4.8375 19.0312 5.25 19.0312ZM14.768 8.03203C15.1828 8.03203 15.518 8.36719 15.518 8.78203C15.518 9.19687 15.1828 9.53203 14.768 9.53203H7.67578C7.26094 9.53203 6.92578 9.19687 6.92578 8.78203C6.92578 8.36719 7.26094 8.03203 7.67578 8.03203H14.768ZM6.92578 12.968C6.92578 12.5531 7.26094 12.218 7.67578 12.218H10.7461C11.1609 12.218 11.4961 12.5531 11.4961 12.968C11.4961 13.3828 11.1609 13.718 10.7461 13.718H7.67578C7.26094 13.718 6.92578 13.3828 6.92578 12.968ZM19.8984 16.0312H17.3156V13.4508C17.3156 13.0359 16.9805 12.7008 16.5656 12.7008C16.1508 12.7008 15.8156 13.0359 15.8156 13.4508V16.0336H13.2328C12.818 16.0336 12.4828 16.3687 12.4828 16.7836C12.4828 17.1984 12.818 17.5336 13.2328 17.5336H15.8133V20.1141C15.8133 20.5289 16.1484 20.8641 16.5633 20.8641C16.9781 20.8641 17.3133 20.5289 17.3133 20.1141V17.5312H19.8961C20.3109 17.5312 20.6461 17.1961 20.6461 16.7812C20.6461 16.3664 20.3109 16.0312 19.8984 16.0312Z" fill="#333333"/>
</svg>
