<svg width="44px" height="44px" viewBox="0 0 24 25" fill="none" xmlns="http://www.w3.org/2000/svg">
<path fill-rule="evenodd" clip-rule="evenodd" d="M20.2297 4.21187C18.1695 2.15171 14.818 2.15171 12.7578 4.21187L9.5 7.46968C9.20703 7.76265 9.20703 8.23843 9.5 8.52905C9.79297 8.81968 10.2688 8.82202 10.5594 8.52905L13.8172 5.27124C15.2937 3.79702 17.6914 3.79702 19.168 5.27124C20.6422 6.74546 20.6422 9.14546 19.168 10.622L15.9102 13.8798C15.6172 14.1728 15.6172 14.6486 15.9102 14.9392C16.0555 15.0845 16.2477 15.1595 16.4398 15.1595C16.632 15.1595 16.8242 15.0869 16.9695 14.9392L20.2273 11.6814C22.2898 9.62358 22.2898 6.27202 20.2297 4.21187ZM13.2148 16.5775L9.95703 19.8353C8.52734 21.265 6.03594 21.2626 4.60625 19.8353C3.13203 18.3611 3.13203 15.9611 4.60625 14.4845L7.86406 11.2267C8.15703 10.9337 8.15703 10.458 7.86406 10.1673C7.57109 9.87671 7.09531 9.87437 6.80469 10.1673L3.54688 13.4251C2.54844 14.4236 2 15.7501 2 17.1611C2 18.572 2.55078 19.8986 3.54688 20.897C4.54531 21.8955 5.87188 22.4439 7.28281 22.4439C8.69375 22.4439 10.0203 21.8955 11.0188 20.897L14.2766 17.6392C14.5695 17.3462 14.5695 16.8705 14.2766 16.5798C13.9836 16.2892 13.5078 16.2845 13.2148 16.5775ZM8.88125 14.4986L13.8312 9.54858C14.1242 9.25562 14.6 9.2603 14.893 9.55093C15.1859 9.84155 15.1859 10.3173 14.893 10.6103L9.94063 15.558C9.79531 15.7056 9.60313 15.7783 9.41094 15.7783C9.21875 15.7783 9.02656 15.7033 8.88125 15.558C8.58828 15.2673 8.58828 14.7916 8.88125 14.4986Z" fill="#333333"/>
</svg>
