<svg width="44px" height="44px" viewBox="0 0 24 25" fill="none" xmlns="http://www.w3.org/2000/svg">
<path d="M1.99951 12.5417C1.99951 17.9857 6.42951 22.4157 11.8745 22.4157C17.3195 22.4157 21.7495 17.9857 21.7495 12.5417C21.7495 7.09675 17.3195 2.66675 11.8745 2.66675C6.42951 2.66675 1.99951 7.09675 1.99951 12.5417ZM10.1137 15.8215L7.07571 12.7845C6.78271 12.4915 6.78271 12.0165 7.07571 11.7235C7.36871 11.4305 7.84371 11.4305 8.13671 11.7235L10.6437 14.2305L15.6127 9.2615C15.9057 8.9685 16.3807 8.9685 16.6737 9.2615C16.9667 9.5545 16.9667 10.0295 16.6737 10.3225L11.1737 15.8215C11.0277 15.9685 10.8357 16.0415 10.6437 16.0415C10.4517 16.0415 10.2597 15.9685 10.1137 15.8215Z" fill="#333333"/>
</svg>
