<svg width="44px" height="44px" viewBox="0 0 24 25" fill="none" xmlns="http://www.w3.org/2000/svg">
<path fill-rule="evenodd" clip-rule="evenodd" d="M19.2954 10.9636C19.1665 10.5699 18.7446 10.3519 18.3509 10.4832L12.7564 12.2996V6.41675C12.7564 6.0019 12.4212 5.66675 12.0064 5.66675C11.5915 5.66675 11.2564 6.0019 11.2564 6.41675V12.2996L5.66183 10.4808C5.26574 10.3519 4.84386 10.5675 4.7173 10.9613C4.5884 11.355 4.80636 11.7792 5.19777 11.9058L10.7923 13.7269L7.33527 18.4847C7.09152 18.8199 7.16652 19.2886 7.50168 19.5324C7.63527 19.6285 7.78996 19.6753 7.9423 19.6753C8.17433 19.6753 8.40168 19.5675 8.54933 19.366L12.0064 14.6082L15.4634 19.366C15.6111 19.5675 15.8384 19.6753 16.0704 19.6753C16.2228 19.6753 16.3775 19.6285 16.5111 19.5324C16.8462 19.2886 16.9212 18.8199 16.6775 18.4847L13.2204 13.7269L18.815 11.9082C19.2087 11.7816 19.4243 11.3574 19.2954 10.9636Z" fill="#FF5962"/>
</svg>
