<svg width="44px" height="44px" viewBox="0 0 24 24" fill="none" xmlns="http://www.w3.org/2000/svg">
<path fill-rule="evenodd" clip-rule="evenodd" d="M21.1032 10.3089C21.5159 10.3089 21.8511 9.97398 21.8511 9.56102V6.24344C21.8511 5.00641 20.8442 4 19.6077 4H4.24344C3.00688 4 2 5.00641 2 6.24344V9.56125C2 9.97398 2.33492 10.3091 2.74789 10.3091C3.43531 10.3091 3.9943 10.8681 3.9943 11.5555C3.9943 12.243 3.43531 12.802 2.74789 12.802C2.33516 12.802 2 13.1369 2 13.5498V17.6973C2 18.9344 3.00688 19.9408 4.24344 19.9408H19.6074C20.844 19.9408 21.8509 18.9344 21.8509 17.6973V13.5496C21.8509 13.1369 21.5159 12.8017 21.103 12.8017C20.4155 12.8017 19.8566 12.2427 19.8566 11.5553C19.8568 10.8679 20.4158 10.3089 21.1032 10.3089ZM20.3553 14.1937V17.6971C20.3553 18.1094 20.0195 18.445 19.6074 18.445H8.375V17.9465C8.375 17.5337 8.04008 17.1986 7.62711 17.1986C7.21414 17.1986 6.87922 17.5335 6.87922 17.9465V18.445H4.24344C3.83164 18.445 3.49555 18.1096 3.49555 17.6971V14.1937C4.64539 13.8674 5.48961 12.808 5.48961 11.5553C5.48961 10.3026 4.64539 9.2432 3.49555 8.91695V6.24344C3.49555 5.83117 3.83141 5.49555 4.24344 5.49555H6.87945V5.99406C6.87945 6.4068 7.21438 6.74195 7.62734 6.74195C8.04031 6.74195 8.37523 6.40703 8.37523 5.99406V5.49555H19.6079C20.0197 5.49555 20.3558 5.83094 20.3558 6.24344V8.91719C19.2059 9.24344 18.3617 10.3028 18.3617 11.5555C18.3617 12.8083 19.2055 13.8674 20.3553 14.1937ZM7.62711 7.6368C7.21438 7.6368 6.87922 7.97172 6.87922 8.38469V10.7748C6.87922 11.1876 7.21414 11.5227 7.62711 11.5227C8.04008 11.5227 8.375 11.1878 8.375 10.7748V8.38445C8.375 7.97172 8.04008 7.6368 7.62711 7.6368ZM7.62711 12.4176C7.21438 12.4176 6.87922 12.7525 6.87922 13.1655V15.5559C6.87922 15.9686 7.21414 16.3037 7.62711 16.3037C8.04008 16.3037 8.375 15.9688 8.375 15.5559V13.1655C8.375 12.7525 8.04008 12.4176 7.62711 12.4176Z" fill="#333333"/>
</svg>
