<svg width="44px" height="44px" viewBox="0 0 24 24" fill="none" xmlns="http://www.w3.org/2000/svg">
<path fill-rule="evenodd" clip-rule="evenodd" d="M19.3751 6.05223L12.8752 2.29988C12.1838 1.90051 11.3224 1.89957 10.6252 2.29988L4.125 6.05223C3.43078 6.45301 3 7.19973 3 8.00105V15.5064C3 16.3078 3.43172 17.0547 4.125 17.4546L10.6249 21.2081C10.9725 21.4082 11.3613 21.5083 11.7499 21.5083C12.1395 21.5083 12.5283 21.4078 12.8749 21.2076L19.3739 17.4553C20.0681 17.0559 20.4998 16.3087 20.4998 15.5064V8.00105C20.5001 7.19926 20.0684 6.45207 19.3751 6.05223ZM19.0001 15.5064C19.0001 15.7741 18.8566 16.0225 18.6251 16.1559L12.1249 19.9087C11.8945 20.0425 11.6074 20.0425 11.3749 19.9087L4.875 16.1552C4.64344 16.0218 4.5 15.7734 4.5 15.5062V8.00105C4.5 7.73387 4.64344 7.48496 4.875 7.35113L11.3749 3.59926C11.4889 3.53335 11.6183 3.49867 11.7499 3.49871C11.8798 3.49871 12.0096 3.53246 12.1249 3.59879L18.6248 7.35184C18.8564 7.4852 18.9998 7.73363 18.9998 8.00129V15.5064H19.0001ZM11.7506 10.7596L16.1123 8.51902C16.4794 8.32824 16.9327 8.47473 17.1223 8.8434C17.3119 9.21207 17.1663 9.66418 16.7981 9.85309L12.5266 12.0473V16.8412C12.5266 17.2554 12.1908 17.5912 11.7766 17.5912C11.3625 17.5912 11.0266 17.2554 11.0266 16.8412V12.0738L6.70336 9.85285C6.33516 9.66395 6.18984 9.21184 6.37922 8.84316C6.56859 8.47449 7.0207 8.32801 7.38891 8.51902L11.7506 10.7596Z" fill="#333333"/>
</svg>
