<svg width="44px" height="44px" viewBox="0 0 24 25" fill="none" xmlns="http://www.w3.org/2000/svg">
<path fill-rule="evenodd" clip-rule="evenodd" d="M19.8797 4.3312C19.8803 4.33237 19.8809 4.33355 19.882 4.33472C20.2852 4.74019 20.5359 5.30034 20.5336 5.92144V10.2574C20.5336 10.6722 20.1984 11.0074 19.7836 11.0074C19.3688 11.0074 19.0336 10.6722 19.0336 10.2574V6.23081L11.4141 13.8503C11.2688 13.998 11.0766 14.0707 10.8844 14.0707C10.6922 14.0707 10.5023 13.998 10.3547 13.8503C10.0617 13.5574 10.0617 13.0816 10.3547 12.7886L17.9766 5.16675H13.95C13.5352 5.16675 13.2 4.83159 13.2 4.41675C13.2 4.0019 13.5352 3.66675 13.95 3.66675H18.2859C18.9023 3.66675 19.4625 3.91753 19.8703 4.323C19.8715 4.32417 19.8727 4.32476 19.8738 4.32534C19.875 4.32593 19.8762 4.32651 19.8773 4.32769C19.8785 4.32886 19.8791 4.33003 19.8797 4.3312ZM19.0359 14.6167C19.0359 14.2019 19.3711 13.8667 19.7859 13.8667C20.2008 13.8667 20.5359 14.2042 20.5359 14.6191V18.955C20.5359 20.1949 19.5281 21.205 18.2859 21.205H5.25C4.01016 21.205 3 20.1972 3 18.955V5.91909C3 4.67925 4.00781 3.66909 5.25 3.66909H9.58594C10.0008 3.66909 10.3359 4.00425 10.3359 4.41909C10.3359 4.83394 10.0008 5.16909 9.58594 5.16909H5.25C4.8375 5.16909 4.5 5.50425 4.5 5.91909V18.9527C4.5 19.3652 4.83516 19.7027 5.25 19.7027H18.2859C18.6984 19.7027 19.0359 19.3675 19.0359 18.9527V14.6167Z" fill="#333333"/>
</svg>
