<svg width="44px" height="44px" viewBox="0 0 24 24" fill="none" xmlns="http://www.w3.org/2000/svg">
<path fill-rule="evenodd" clip-rule="evenodd" d="M14.4569 4H18.2908C19.2334 4 20.0001 4.76406 20.0001 5.70367V18.2962C20.0001 19.2358 19.2334 19.9998 18.2908 19.9998H5.70859C4.76687 19.9998 4 19.2358 4 18.2962V14.482C4 13.5423 4.76687 12.7783 5.70859 12.7783L8.34555 12.7668V10.2367C8.34555 9.1818 9.20687 8.32352 10.2651 8.32352H12.7483V5.70367C12.7483 4.76406 13.5152 4 14.4569 4ZM18.2908 18.4743C18.3913 18.4743 18.4736 18.3941 18.4736 18.2962V5.70367C18.4736 5.60547 18.3916 5.52555 18.2908 5.52555H14.4573C14.3568 5.52555 14.2755 5.6057 14.2755 5.70367V9.08617C14.2755 9.50758 13.9335 9.84906 13.5121 9.84906H10.2655C10.0483 9.84906 9.8725 10.0227 9.8725 10.2365V13.4575C9.8725 13.6614 9.79023 13.8566 9.64539 14.0003L9.57555 14.0692C9.43328 14.2094 9.2425 14.2884 9.04281 14.2893L5.71234 14.3038C5.60805 14.3038 5.52672 14.384 5.52672 14.482V18.2962C5.52672 18.3944 5.60781 18.4743 5.70859 18.4743H18.2908Z" fill="#333333"/>
</svg>
