<svg width="44px" height="44px" viewBox="0 0 24 25" fill="none" xmlns="http://www.w3.org/2000/svg">
<path fill-rule="evenodd" clip-rule="evenodd" d="M19.8845 10.3508H3.75011C3.33761 10.3508 3.00011 10.0156 3.00011 9.60078C3.00011 9.18594 3.33526 8.85078 3.75011 8.85078H18.361L15.3071 4.87344C15.0564 4.54532 15.1173 4.07422 15.4454 3.8211C15.7735 3.57032 16.247 3.63125 16.4978 3.95938L20.4798 9.14375C20.6532 9.36875 20.6837 9.67578 20.5571 9.93125C20.4306 10.1891 20.1704 10.3508 19.8845 10.3508ZM3.75011 14.6656H19.8845C20.297 14.6656 20.6321 15.0008 20.6321 15.4156C20.6321 15.8305 20.297 16.1656 19.8821 16.1656H5.2712L8.32745 20.143C8.57823 20.4711 8.51729 20.9422 8.18917 21.1953C8.05323 21.2984 7.89151 21.35 7.73214 21.35C7.50714 21.35 7.28448 21.2492 7.13683 21.057L3.15479 15.8727C2.98136 15.6477 2.95089 15.3406 3.07745 15.0852C3.20401 14.8273 3.46417 14.6656 3.75011 14.6656Z" fill="#333333"/>
</svg>
