<svg width="44px" height="44px" viewBox="0 0 24 24" fill="none" xmlns="http://www.w3.org/2000/svg">
<path fill-rule="evenodd" clip-rule="evenodd" d="M19.4381 11.857C20.324 11.8594 21.1748 12.3258 21.6295 13.1625C22.2483 14.3016 21.9061 15.7102 20.835 16.4367L15.0201 20.3813C14.8959 20.4656 14.7483 20.5102 14.5983 20.5102H2.7506C2.33576 20.5102 2.0006 20.175 2.0006 19.7602C2.0006 19.3453 2.33576 19.0102 2.7506 19.0102H14.3686L19.9936 15.1945C20.4272 14.9016 20.5631 14.3367 20.3147 13.8773C20.0522 13.3945 19.4615 13.2094 18.9717 13.4578L13.6256 16.1578C13.5225 16.2094 13.4053 16.2375 13.2881 16.2375H9.69279C9.27794 16.2375 8.94279 15.9 8.94279 15.4875C8.94044 15.075 9.2756 14.7375 9.69044 14.7375L12.7983 14.7305C13.3326 14.7305 13.7662 14.2945 13.7662 13.7602C13.7662 13.5 13.6631 13.2563 13.4803 13.0734C13.2975 12.8906 13.0537 12.7898 12.7959 12.7898H12.7936L10.0936 12.7945H10.0912C9.95294 12.7945 9.81701 12.757 9.69982 12.6844C7.77326 11.5055 5.34044 11.7422 3.19357 13.3125C2.86076 13.5586 2.38966 13.4859 2.14591 13.1508C1.89982 12.818 1.97248 12.3469 2.30763 12.1031C3.12326 11.5055 3.99279 11.0883 4.87169 10.8141C4.86816 10.7585 4.86264 10.7032 4.85712 10.648C4.84799 10.5566 4.83888 10.4655 4.83888 10.3734C4.83888 6.30703 8.14826 3 12.2147 3C16.2811 3 19.5881 6.30703 19.5881 10.3734C19.5881 10.8773 19.5365 11.3719 19.4381 11.857ZM12.9553 11.3062C13.5529 11.3438 14.1108 11.5852 14.5397 12.0117C14.9803 12.4523 15.2358 13.0289 15.2615 13.6477L17.7178 12.4078C17.9592 11.7563 18.0881 11.0742 18.0881 10.3711C18.0881 7.13203 15.4537 4.49766 12.2147 4.49766C8.9756 4.49766 6.33888 7.13203 6.33888 10.3711C6.33888 10.391 6.34123 10.4109 6.34357 10.4309C6.34591 10.4508 6.34826 10.4707 6.34826 10.4906C7.72873 10.35 9.09279 10.6148 10.2951 11.2945L11.4553 11.2922V7.35938C11.4553 6.94453 11.7904 6.60938 12.2053 6.60938C12.6201 6.60938 12.9553 6.94453 12.9553 7.35938V11.3062Z" fill="#333333"/>
</svg>
