<svg width="44px" height="44px" viewBox="0 0 24 24" fill="none" xmlns="http://www.w3.org/2000/svg">
<path fill-rule="evenodd" clip-rule="evenodd" d="M19.1684 3.77972C19.459 3.48676 19.9348 3.48676 20.2277 3.77972C20.5207 4.07269 20.5207 4.54613 20.2277 4.8391L4.83398 20.2328C4.68867 20.3805 4.49648 20.4532 4.3043 20.4532C4.11211 20.4532 3.91992 20.3782 3.77461 20.2328C3.48164 19.9422 3.48164 19.4664 3.77461 19.1735L19.1684 3.77972ZM4.3207 15.9907C4.49883 15.9907 4.6793 15.9274 4.82227 15.7985C5.1293 15.5219 5.15508 15.0461 4.87852 14.7391C3.87305 13.6211 3.24023 12.5243 2.96836 12.0063C3.6457 10.7266 6.57539 5.85863 12.0012 5.85863C12.6855 5.85863 13.3629 5.93832 14.0145 6.09769C14.4176 6.19379 14.823 5.94769 14.9191 5.54457C15.0176 5.14144 14.7691 4.73597 14.366 4.63988C13.5973 4.45472 12.8027 4.35863 11.9988 4.35863C4.79883 4.36097 1.57852 11.4016 1.44492 11.7016C1.3582 11.8961 1.3582 12.1188 1.44492 12.311C1.47539 12.3813 2.21602 14.0243 3.76289 15.7422C3.91055 15.9063 4.11445 15.9907 4.3207 15.9907ZM22.5527 11.6899L22.5499 11.6839C22.4889 11.5563 21.727 9.96327 20.2137 8.29144C19.9348 7.98441 19.4613 7.96097 19.1543 8.23988C18.8473 8.51879 18.8238 8.99222 19.1027 9.29926C20.1059 10.4055 20.748 11.4883 21.0293 12.0063C20.3238 13.3047 17.3309 18.1516 12.0012 18.1516C11.3121 18.1516 10.6301 18.0743 9.97617 17.9196C9.57305 17.8235 9.16992 18.0743 9.07383 18.4774C8.97773 18.8805 9.22852 19.2836 9.63164 19.3797C10.398 19.5602 11.1949 19.6516 12.0012 19.6516C19.0699 19.6516 22.4121 12.6203 22.5527 12.3203C22.6465 12.1211 22.6465 11.8914 22.5527 11.6899Z" fill="#333333"/>
</svg>
