<svg width="44px" height="44px" viewBox="0 0 24 24" fill="none" xmlns="http://www.w3.org/2000/svg">
<path d="M3 6C3 4.34315 4.34315 3 6 3H18C19.6569 3 21 4.34315 21 6V18C21 19.6569 19.6569 21 18 21H6C4.34315 21 3 19.6569 3 18V6ZM10.7536 15.5445C10.9481 15.5445 11.1425 15.4706 11.2904 15.3217L16.86 9.75279C17.1567 9.45607 17.1567 8.97503 16.86 8.67835C16.5633 8.38163 16.0823 8.38163 15.7855 8.67835L10.7536 13.7105L8.21493 11.1716C7.91822 10.8749 7.43721 10.8749 7.1405 11.1716C6.84379 11.4683 6.84379 11.9494 7.1405 12.2461L10.2169 15.3217C10.3648 15.4706 10.5592 15.5445 10.7536 15.5445Z" fill="#98999C"/>
</svg>
