<svg width="44px" height="44px" viewBox="0 0 24 24" fill="none" xmlns="http://www.w3.org/2000/svg">
<path fill-rule="evenodd" clip-rule="evenodd" d="M14.0385 20.4849L20.3885 14.1349C20.5305 13.9929 20.6085 13.8049 20.6085 13.6049C20.6085 13.4049 20.5305 13.2159 20.3885 13.0749L13.2695 5.95488C13.1345 5.82088 12.9555 5.74188 12.7665 5.73588L6.27749 5.49988H6.24949C6.05149 5.49988 5.86649 5.57588 5.72349 5.71588C5.57549 5.86288 5.49549 6.05788 5.50049 6.26588L5.64749 12.8609C5.65149 13.0539 5.72949 13.2369 5.86649 13.3739L12.9775 20.4859C13.2695 20.7779 13.7465 20.7779 14.0385 20.4849ZM14.3295 4.89388L21.4495 12.0139C21.8735 12.4379 22.1085 13.0039 22.1085 13.6049C22.1085 14.2049 21.8745 14.7709 21.4495 15.1959L15.0985 21.5459C14.6605 21.9849 14.0835 22.2039 13.5075 22.2039C12.9315 22.2039 12.3555 21.9849 11.9165 21.5469L4.80549 14.4349C4.39449 14.0239 4.16049 13.4759 4.14749 12.8939L4.00049 6.29988C3.98749 5.68288 4.23149 5.08088 4.67049 4.64788C5.11049 4.21488 5.72549 3.98388 6.33249 4.00088L12.8205 4.23688C13.3905 4.25688 13.9265 4.49088 14.3295 4.89388ZM8.61619 8.71268C7.57319 9.75668 7.57319 11.4547 8.61619 12.4987C9.13819 13.0207 9.82319 13.2807 10.5082 13.2807C11.1942 13.2807 11.8802 13.0207 12.4022 12.4987C13.4452 11.4547 13.4452 9.75668 12.4022 8.71268C11.3582 7.66868 9.65919 7.66868 8.61619 8.71268ZM11.3412 11.4377C10.8822 11.8957 10.1352 11.8967 9.67619 11.4377C9.21819 10.9787 9.21819 10.2317 9.67619 9.77368C10.1352 9.31368 10.8822 9.31368 11.3412 9.77368C11.7992 10.2317 11.7992 10.9797 11.3412 11.4377Z" fill="#333333"/>
</svg>
