<svg width="44px" height="44px" viewBox="0 0 24 24" fill="none" xmlns="http://www.w3.org/2000/svg">
<path fill-rule="evenodd" clip-rule="evenodd" d="M17.2502 3H6.25C5.00969 3 4 4.00922 4 5.25V18.2501C4 19.4909 5.00969 20.5001 6.25 20.5001H17.2499C18.4902 20.5001 19.4999 19.4909 19.4999 18.2501V5.25C19.5002 4.00922 18.4902 3 17.2502 3ZM18.0002 18.2498C18.0002 18.6635 17.6631 18.9998 17.2502 18.9998H6.25C5.83703 18.9998 5.5 18.6635 5.5 18.2498V5.25C5.5 4.83633 5.83703 4.5 6.25 4.5H17.2499C17.6629 4.5 17.9999 4.83633 17.9999 5.25V18.2498H18.0002ZM15.3184 7.97062H8.22555C7.81141 7.97062 7.47555 8.30648 7.47555 8.72062C7.47555 9.13477 7.81141 9.47062 8.22555 9.47062H15.3182C15.7323 9.47062 16.0682 9.13477 16.0682 8.72062C16.0682 8.30648 15.7326 7.97062 15.3184 7.97062ZM11.2949 12.1577H8.22555C7.81141 12.1577 7.47555 12.4936 7.47555 12.9077C7.47555 13.3219 7.81141 13.6577 8.22555 13.6577H11.2949C11.7091 13.6577 12.0449 13.3219 12.0449 12.9077C12.0449 12.4936 11.7091 12.1577 11.2949 12.1577Z" fill="#333333"/>
</svg>
