<svg width="44px" height="44px" viewBox="0 0 24 25" fill="none" xmlns="http://www.w3.org/2000/svg">
<path fill-rule="evenodd" clip-rule="evenodd" d="M3.19995 6.71836C3.19995 6.02695 3.76011 5.4668 4.45151 5.4668C5.14058 5.4668 5.70308 6.02695 5.70308 6.71836C5.70308 7.40977 5.14292 7.96992 4.45151 7.96992C3.76011 7.96992 3.19995 7.40977 3.19995 6.71836ZM20.0046 7.46836H8.82026C8.40542 7.46836 8.07026 7.1332 8.07026 6.71836C8.07026 6.30352 8.40542 5.96836 8.82026 5.96836H20.0046C20.4195 5.96836 20.7546 6.30352 20.7546 6.71836C20.7546 7.1332 20.4195 7.46836 20.0046 7.46836ZM8.85776 11.9684H20.0421C20.457 11.9684 20.7921 12.3035 20.7921 12.7184C20.7921 13.1332 20.457 13.4684 20.0421 13.4684H8.85776C8.44292 13.4684 8.10776 13.1332 8.10776 12.7184C8.10776 12.3035 8.44292 11.9684 8.85776 11.9684ZM20.0421 18.0645H8.85776C8.44292 18.0645 8.10776 18.3996 8.10776 18.8145C8.10776 19.2293 8.44292 19.5645 8.85776 19.5645H20.0421C20.457 19.5645 20.7921 19.2293 20.7921 18.8145C20.7921 18.3996 20.457 18.0645 20.0421 18.0645ZM4.45151 11.4668C3.76011 11.4668 3.19995 12.027 3.19995 12.7184C3.19995 13.4098 3.76011 13.9699 4.45151 13.9699C5.14292 13.9699 5.70308 13.4098 5.70308 12.7184C5.70073 12.027 5.14058 11.4668 4.45151 11.4668ZM3.19995 18.7184C3.19995 18.027 3.76011 17.4668 4.45151 17.4668C5.14058 17.4668 5.70308 18.027 5.70308 18.7184C5.70308 19.4098 5.14292 19.9699 4.45151 19.9699C3.76011 19.9699 3.19995 19.4098 3.19995 18.7184Z" fill="#333333"/>
</svg>
