<svg width="44px" height="44px" viewBox="0 0 24 24" fill="none" xmlns="http://www.w3.org/2000/svg">
<path d="M16.0275 3.02311C17.3107 2.95819 18.6038 3.03015 19.8713 3.23757C20.2336 3.2971 20.5001 3.61069 20.5001 3.97749V15.9775C20.5001 16.1978 20.4035 16.4069 20.2355 16.5494C20.0684 16.6916 19.8457 16.754 19.6289 16.7179C18.6094 16.5503 17.5704 16.4849 16.5352 16.5215C14.9932 16.577 13.4658 16.8613 11.9951 17.3662C11.8401 17.4193 11.672 17.4202 11.5165 17.3687C10.2144 16.9387 8.86387 16.6722 7.49602 16.5754C6.28314 16.4903 5.06459 16.5386 3.86227 16.7195C3.63961 16.7507 3.42563 16.6886 3.26063 16.5461C3.09562 16.4036 3 16.1959 3 15.9777V3.97772C3 3.60507 3.27352 3.28913 3.64172 3.23546C5.02596 3.03331 6.42796 2.9809 7.82344 3.07913C9.15063 3.17274 10.4647 3.40198 11.7452 3.76327C13.1388 3.34585 14.5772 3.09694 16.0275 3.02311ZM7.60172 15.0794C8.7518 15.1607 9.89016 15.3583 11.002 15.6566V5.13788C9.92578 4.85616 8.82703 4.65366 7.71797 4.57538C6.64875 4.50015 5.56945 4.5203 4.50023 4.63796V15.1272C5.10844 15.0655 5.71992 15.0344 6.33117 15.0344C6.75609 15.0344 7.17984 15.0496 7.60172 15.0794ZM19.0001 15.1176V4.62718C18.0422 4.50765 17.0705 4.47249 16.1037 4.52124C14.8856 4.58335 13.6779 4.78796 12.502 5.11515V15.6494C13.8033 15.288 15.1357 15.0716 16.4805 15.0229C17.3216 14.9931 18.1637 15.0247 19.0001 15.1176ZM15.3382 18.0576C16.5666 18.0662 17.7874 18.2641 18.967 18.6444C19.335 18.763 19.5382 19.158 19.4191 19.5269C19.3001 19.8946 18.9047 20.0948 18.5374 19.9785C17.4935 19.6415 16.4133 19.4666 15.3284 19.4589C14.1966 19.4683 13.0587 19.626 11.966 19.9785C11.8275 20.0235 11.6761 20.0235 11.5355 19.9785C10.3978 19.6103 9.24164 19.4355 8.04047 19.4589C7.00336 19.48 5.9693 19.6548 4.96828 19.9785C4.89586 20.0015 4.82367 20.0127 4.75242 20.0127C4.45641 20.0127 4.18102 19.8238 4.08539 19.5269C3.96633 19.1587 4.16836 18.7635 4.53656 18.6444C5.66836 18.2788 6.83836 18.0815 8.01305 18.0576C9.27375 18.0308 10.5316 18.2076 11.7513 18.5772C12.9192 18.2235 14.0902 18.0201 15.3382 18.0576Z" fill="#333333"/>
</svg>
