<svg width="44px" height="44px" viewBox="0 0 24 24" fill="none" xmlns="http://www.w3.org/2000/svg">
<path fill-rule="evenodd" clip-rule="evenodd" d="M14.533 7.272C14.533 5.744 13.29 4.5 11.761 4.5C10.232 4.5 8.989 5.744 8.989 7.272C8.989 8.801 10.232 10.045 11.761 10.045C13.29 10.045 14.533 8.801 14.533 7.272ZM16.033 7.272C16.033 9.628 14.117 11.545 11.761 11.545C9.405 11.545 7.489 9.628 7.489 7.272C7.489 4.917 9.405 3 11.761 3C14.117 3 16.033 4.917 16.033 7.272ZM19.4471 14.3003L14.1001 19.6473H12.7911V18.3383L18.1381 12.9913C18.2301 12.8993 18.3431 12.8963 18.3741 12.9273L19.5111 14.0643C19.5411 14.0943 19.5401 14.2073 19.4471 14.3003ZM20.5721 13.0033L19.4351 11.8663C18.8031 11.2343 17.7461 11.2623 17.0771 11.9303L11.5111 17.4973C11.3701 17.6373 11.2911 17.8283 11.2911 18.0273V19.8633C11.2911 20.2103 11.4231 20.5333 11.6631 20.7743C11.9031 21.0143 12.2271 21.1473 12.5731 21.1473H14.4111C14.6101 21.1473 14.8011 21.0683 14.9411 20.9273L20.5081 15.3613C21.1751 14.6933 21.2041 13.6353 20.5721 13.0033ZM12.511 13.7339C12.511 13.3199 12.175 12.9839 11.761 12.9839H8.556C5.493 12.9839 3 15.4769 3 18.5399V19.7809C3 20.1949 3.336 20.5309 3.75 20.5309C4.164 20.5309 4.5 20.1949 4.5 19.7809V18.5399C4.5 16.3029 6.32 14.4839 8.556 14.4839H11.761C12.175 14.4839 12.511 14.1479 12.511 13.7339Z" fill="#333333"/>
</svg>
