<svg width="44px" height="44px" viewBox="0 0 24 25" fill="none" xmlns="http://www.w3.org/2000/svg">
<path d="M6.48906 19.0645C6.325 19.1137 6.15625 19.1371 5.98984 19.1371C5.53281 19.1371 5.0875 18.9566 4.75234 18.6262C4.29766 18.1715 4.12891 17.5059 4.31172 16.8895L6.59922 9.19727C6.79609 8.53164 7.28125 8.00195 7.92812 7.74648L13.1031 5.69805C12.9062 4.94805 13.0914 4.11836 13.6773 3.53242L14.0523 3.15742C14.9313 2.28086 16.3586 2.28086 17.2352 3.15742L20.2211 6.1457C21.0977 7.02227 21.0977 8.44961 20.2211 9.32617L19.8461 9.70117C19.4219 10.1254 18.8547 10.3598 18.2547 10.3598C18.0578 10.3598 17.8656 10.3246 17.6805 10.2754L15.632 15.448C15.3766 16.0949 14.8469 16.5801 14.1813 16.777L6.48906 19.0645ZM15.1141 4.2168L14.7391 4.5918C14.4461 4.88477 14.4461 5.36055 14.7391 5.65352L17.725 8.63711C18.0063 8.9207 18.5008 8.9207 18.7844 8.63711L19.1594 8.26211C19.4523 7.97148 19.4523 7.4957 19.1594 7.20273L16.1734 4.2168C16.0281 4.06914 15.8359 3.99648 15.6438 3.99648C15.4516 3.99648 15.2594 4.07148 15.1141 4.2168ZM8.03828 9.62148L6.06719 16.2496L11.0266 11.2973C11.3172 11.0043 11.793 11.0066 12.0859 11.2973C12.3789 11.5879 12.3789 12.0637 12.0859 12.3566L7.13125 17.3113L13.757 15.3402C13.9773 15.2746 14.1555 15.1129 14.2398 14.8973L16.4008 9.43633L13.9422 6.97773L8.48125 9.13867C8.26562 9.22305 8.10391 9.39883 8.03828 9.62148ZM4.75 20.9066H19.75C20.1648 20.9066 20.5 21.2418 20.5 21.6566C20.5 22.0715 20.1648 22.4066 19.75 22.4066H4.75C4.33516 22.4066 4 22.0715 4 21.6566C4 21.2418 4.33516 20.9066 4.75 20.9066Z" fill="#333333"/>
</svg>
