<svg width="44px" height="44px" viewBox="0 0 24 24" fill="none" xmlns="http://www.w3.org/2000/svg">
<path fill-rule="evenodd" clip-rule="evenodd" d="M22 19C22 15.6863 19.3137 13 16 13H11C7.68629 13 5 15.6863 5 19V20C5 20.5523 5.44772 21 6 21H21C21.5523 21 22 20.5523 22 20V19ZM11 14.5H16L16.2118 14.5049C18.5988 14.6155 20.5 16.5857 20.5 19C20.5 19.2761 20.2761 19.5 20 19.5H7C6.72386 19.5 6.5 19.2761 6.5 19L6.5049 18.7882C6.61551 16.4012 8.58573 14.5 11 14.5Z" fill="#333333"/>
<path fill-rule="evenodd" clip-rule="evenodd" d="M18 7.5C18 5.01472 15.9853 3 13.5 3C11.0147 3 9 5.01472 9 7.5C9 9.98528 11.0147 12 13.5 12C15.9853 12 18 9.98528 18 7.5ZM10.5 7.5C10.5 5.84315 11.8431 4.5 13.5 4.5C15.1569 4.5 16.5 5.84315 16.5 7.5C16.5 9.15685 15.1569 10.5 13.5 10.5C11.8431 10.5 10.5 9.15685 10.5 7.5Z" fill="#333333"/>
<path d="M2 4.75C2 4.33579 2.33579 4 2.75 4H7.25C7.66421 4 8 4.33579 8 4.75C8 5.16421 7.66421 5.5 7.25 5.5H2.75C2.33579 5.5 2 5.16421 2 4.75Z" fill="#333333"/>
<path d="M2 12.75C2 12.3358 2.33579 12 2.75 12H5.25C5.66421 12 6 12.3358 6 12.75C6 13.1642 5.66421 13.5 5.25 13.5H2.75C2.33579 13.5 2 13.1642 2 12.75Z" fill="#333333"/>
<path d="M2 8.75C2 8.33579 2.33579 8 2.75 8H6.25C6.66421 8 7 8.33579 7 8.75C7 9.16421 6.66421 9.5 6.25 9.5H2.75C2.33579 9.5 2 9.16421 2 8.75Z" fill="#333333"/>
</svg>
