<svg width="44px" height="44px" viewBox="0 0 24 25" fill="none" xmlns="http://www.w3.org/2000/svg">
<path d="M19.9922 11.7878H12.6211V4.41675C12.6211 4.0019 12.2859 3.66675 11.8711 3.66675C11.4563 3.66675 11.1211 4.0019 11.1211 4.41675V11.7878H3.75C3.33516 11.7878 3 12.123 3 12.5378C3 12.9527 3.33516 13.2878 3.75 13.2878H11.1211V20.6589C11.1211 21.0738 11.4563 21.4089 11.8711 21.4089C12.2859 21.4089 12.6211 21.0738 12.6211 20.6589V13.2878H19.9922C20.407 13.2878 20.7422 12.9527 20.7422 12.5378C20.7422 12.123 20.407 11.7878 19.9922 11.7878Z" fill="#333333"/>
</svg>
