<svg width="44px" height="44px" viewBox="0 0 24 25" fill="none" xmlns="http://www.w3.org/2000/svg">
<path fill-rule="evenodd" clip-rule="evenodd" d="M3.96406 3.66675H17.7125C18.7953 3.66675 19.6766 4.5119 19.6742 5.55036V6.17974C19.6742 7.1103 19.2008 7.98243 18.4062 8.51515L14.5742 11.0843V20.0169C14.5742 20.5856 14.2766 21.1048 13.7773 21.4083C13.4961 21.5791 13.1773 21.6667 12.8586 21.6667C12.6102 21.6667 12.3594 21.6128 12.125 21.5072L8.22734 19.7449C7.44219 19.392 6.93594 18.6255 6.93594 17.7939V11.0821L3.24453 8.55336C2.46406 8.0184 2 7.15076 2 6.23368V5.55036C2 4.5119 2.88125 3.66675 3.96406 3.66675ZM17.5484 7.33733C17.9422 7.07209 18.1766 6.64052 18.1766 6.17974H18.1742V5.55036C18.1742 5.30536 17.9656 5.10531 17.7102 5.10531H3.96406C3.70859 5.10531 3.5 5.30536 3.5 5.55036V6.23368C3.5 6.68773 3.72969 7.11705 4.11641 7.38228L7.81016 9.911H10.5875C11.0023 9.911 11.3375 10.2324 11.3375 10.6303C11.3375 11.0281 11.0023 11.3496 10.5875 11.3496H8.43359V17.7916C8.43359 18.0703 8.60469 18.3243 8.86484 18.4435L12.7625 20.2057C12.8586 20.2484 12.9359 20.2147 12.9734 20.1922C13.0109 20.1675 13.0742 20.1158 13.0742 20.0147V10.709C13.0742 10.4752 13.1937 10.2549 13.3953 10.12L17.5484 7.33733Z" fill="#333333"/>
<path fill-rule="evenodd" clip-rule="evenodd" d="M16 12.2981C16 11.9009 16.3352 11.5788 16.7487 11.5788H20.2606C20.6741 11.5788 21.0093 11.9009 21.0093 12.2981C21.0093 12.6954 20.6741 13.0174 20.2606 13.0174H16.7487C16.3352 13.0174 16 12.6954 16 12.2981Z" fill="#333333"/>
<path fill-rule="evenodd" clip-rule="evenodd" d="M16 15.1752C16 14.778 16.3352 14.456 16.7487 14.456H21.2513C21.6648 14.456 22 14.778 22 15.1752C22 15.5725 21.6648 15.8945 21.2513 15.8945H16.7487C16.3352 15.8945 16 15.5725 16 15.1752Z" fill="#333333"/>
<path fill-rule="evenodd" clip-rule="evenodd" d="M16 18.0524C16 17.6551 16.3352 17.3331 16.7487 17.3331H20.2519C20.6654 17.3331 21.0006 17.6551 21.0006 18.0524C21.0006 18.4496 20.6654 18.7716 20.2519 18.7716H16.7487C16.3352 18.7716 16 18.4496 16 18.0524Z" fill="#333333"/>
</svg>
