<svg width="44px" height="44px" viewBox="0 0 24 24" fill="none" xmlns="http://www.w3.org/2000/svg">
<path fill-rule="evenodd" clip-rule="evenodd" d="M12 2C6.48611 2 2 6.48611 2 12C2 17.5139 6.48611 22 12 22C17.5139 22 22 17.5139 22 12C22 6.48611 17.5139 2 12 2ZM12 20.4809C7.324 20.4809 3.51911 16.676 3.51911 12C3.51911 7.324 7.324 3.51911 12 3.51911C16.676 3.51911 20.4809 7.324 20.4809 12C20.4809 16.676 16.676 20.4809 12 20.4809ZM12.6242 11.8344C12.6242 11.9 12.65 11.9633 12.6969 12.0102L14.8062 14.1219C15.0992 14.4125 15.0992 14.8883 14.8062 15.1813C14.6609 15.3289 14.4688 15.4016 14.2766 15.4016C14.0844 15.4016 13.8922 15.3266 13.7469 15.1813L11.6375 13.0719C11.307 12.7414 11.1242 12.3008 11.1242 11.8344V6.71797C11.1242 6.30312 11.4594 5.96797 11.8742 5.96797C12.2891 5.96797 12.6242 6.30312 12.6242 6.71797V11.8344Z" fill="#333333"/>
</svg>
