<svg width="44px" height="44px" viewBox="0 0 24 25" fill="none" xmlns="http://www.w3.org/2000/svg">
<path fill-rule="evenodd" clip-rule="evenodd" d="M11.9658 3.66724C11.7736 3.66724 11.5814 3.73989 11.4361 3.8852L5.57676 9.71177C5.28379 10.0024 5.28145 10.4782 5.57441 10.7711C5.86738 11.0641 6.34316 11.0665 6.63613 10.7735L11.2158 6.22192V16.0868C11.2158 16.5016 11.551 16.8368 11.9658 16.8368C12.3807 16.8368 12.7158 16.5016 12.7158 16.0868V6.22192L17.2979 10.7711C17.5908 11.0641 18.0666 11.0618 18.3572 10.7688C18.6502 10.4758 18.6479 10.0024 18.3549 9.70942L12.4955 3.8852C12.3479 3.73989 12.158 3.66724 11.9658 3.66724ZM19.2314 14.3637C19.2314 13.9489 19.5666 13.6137 19.9814 13.6137C20.3939 13.6137 20.7314 13.9489 20.7314 14.3637V18.9434C20.7314 20.1833 19.7213 21.1934 18.4814 21.1934H5.4502C4.21035 21.1934 3.2002 20.1833 3.2002 18.9434V14.3637C3.2002 13.9489 3.53535 13.6137 3.9502 13.6137C4.36504 13.6137 4.7002 13.9489 4.7002 14.3637V18.9434C4.7002 19.3559 5.0377 19.6934 5.4502 19.6934H18.4814C18.8939 19.6934 19.2314 19.3559 19.2314 18.9434V14.3637Z" fill="#333333"/>
</svg>
