<svg width="44px" height="44px" viewBox="0 0 24 24" fill="none" xmlns="http://www.w3.org/2000/svg">
<path fill-rule="evenodd" clip-rule="evenodd" d="M22.5527 11.6789C22.4145 11.3789 19.0699 4.34998 12.0012 4.34998C4.79883 4.34998 1.57852 11.3906 1.44492 11.6906C1.3582 11.8851 1.3582 12.1078 1.44492 12.3C1.57852 12.6 4.79883 19.6406 12.0012 19.6406C19.0699 19.6406 22.4145 12.6094 22.5527 12.3094C22.6465 12.1101 22.6465 11.8804 22.5527 11.6789ZM12.0012 18.1406C6.57539 18.1406 3.6457 13.275 2.96836 11.9929C3.64336 10.7109 6.55664 5.84763 12.0012 5.84763C17.3098 5.84763 20.3168 10.6945 21.027 11.9929C20.3168 13.2937 17.3098 18.1406 12.0012 18.1406ZM12.0012 8.13982C9.87539 8.13982 8.1457 9.86951 8.1457 11.9953C8.1457 14.1211 9.87539 15.8508 12.0012 15.8508C14.127 15.8508 15.8566 14.1211 15.8566 11.9953C15.8566 9.86951 14.127 8.13982 12.0012 8.13982ZM12.0012 14.3508C10.7027 14.3508 9.6457 13.2937 9.6457 11.9953C9.6457 10.6969 10.7027 9.63982 12.0012 9.63982C13.2996 9.63982 14.3566 10.6969 14.3566 11.9953C14.3566 13.2937 13.2996 14.3508 12.0012 14.3508Z" fill="#333333"/>
</svg>
