<svg width="44px" height="44px" viewBox="0 0 24 25" fill="none" xmlns="http://www.w3.org/2000/svg">
<path d="M18.2812 4.46206H17.1V4.41753C17.1 3.4519 16.3148 2.66675 15.3492 2.66675H8.18203C7.21641 2.66675 6.43125 3.4519 6.43125 4.41753V4.46206H5.25C4.01016 4.46206 3 5.47222 3 6.71206V19.7433C3 20.9832 4.01016 21.9933 5.25 21.9933H18.2812C19.5211 21.9933 20.5312 20.9832 20.5312 19.7433V6.71206C20.5312 5.47222 19.5211 4.46206 18.2812 4.46206ZM7.93125 4.41753C7.93125 4.27925 8.04375 4.16675 8.18203 4.16675H15.3469C15.4852 4.16675 15.5977 4.27925 15.5977 4.41753V6.00659C15.5977 6.14487 15.4852 6.25737 15.3469 6.25737H8.18203C8.04375 6.25737 7.93125 6.14487 7.93125 6.00659V4.41753ZM15.3119 11.0154C15.7268 11.0154 16.0619 11.3505 16.0619 11.7654C16.0619 12.1802 15.7268 12.5154 15.3119 12.5154H8.21973C7.80488 12.5154 7.46973 12.1802 7.46973 11.7654C7.46973 11.3505 7.80488 11.0154 8.21973 11.0154H15.3119ZM15.3119 15.2037C15.7268 15.2037 16.0619 15.5388 16.0619 15.9537C16.0619 16.3685 15.7268 16.7037 15.3119 16.7037H8.21973C7.80488 16.7037 7.46973 16.3685 7.46973 15.9537C7.46973 15.5388 7.80488 15.2037 8.21973 15.2037H15.3119Z" fill="#333333"/>
</svg>
