<svg width="44px" height="44px" viewBox="0 0 16 17" fill="none" xmlns="http://www.w3.org/2000/svg">
<path d="M12.3732 6.66601C12.3732 6.79401 12.3242 6.92201 12.2272 7.02001C12.0312 7.21501 11.7152 7.21501 11.5192 7.02001L8.0002 3.50001L4.4802 7.02001C4.2852 7.21501 3.9692 7.21501 3.7732 7.02001C3.5782 6.82401 3.5782 6.50801 3.7732 6.31201L7.6462 2.43901C7.8422 2.24401 8.1582 2.24401 8.3532 2.43901L12.2272 6.31201C12.3242 6.41001 12.3732 6.53801 12.3732 6.66601Z" fill="#333333"/>
<path d="M3.6268 10.6665C3.6268 10.5385 3.6758 10.4105 3.7728 10.3125C3.9688 10.1175 4.2848 10.1175 4.4808 10.3125L7.9998 13.8325L11.5198 10.3125C11.7148 10.1175 12.0308 10.1175 12.2268 10.3125C12.4218 10.5085 12.4218 10.8245 12.2268 11.0205L8.3538 14.8935C8.1578 15.0885 7.8418 15.0885 7.6468 14.8935L3.7728 11.0205C3.6758 10.9225 3.6268 10.7945 3.6268 10.6665Z" fill="#333333"/>
</svg>
