<svg width="44px" height="44px" viewBox="0 0 24 25" fill="none" xmlns="http://www.w3.org/2000/svg">
<path d="M18.4422 7.53281H17.6922V6.75C17.6922 5.51016 16.682 4.5 15.4422 4.5H6.25C5.01016 4.5 4 5.51016 4 6.75V15.9398C4 17.1797 5.01016 18.1898 6.25 18.1898H7V18.9727C7 20.2125 8.01016 21.2227 9.25 21.2227H18.4398C19.6797 21.2227 20.6898 20.2125 20.6898 18.9727V9.78281C20.6922 8.54063 19.682 7.53281 18.4422 7.53281ZM5.5 15.9375V6.74766C5.5 6.33516 5.8375 5.99766 6.25 5.99766H15.4398C15.8523 5.99766 16.1898 6.33516 16.1898 6.74766V15.9375C16.1898 16.35 15.8523 16.6875 15.4398 16.6875H6.25C5.8375 16.6875 5.5 16.3523 5.5 15.9375ZM18.4422 19.7227H9.25C8.8375 19.7227 8.5 19.3852 8.5 18.9727V18.1898H15.4398C16.6797 18.1898 17.6898 17.1797 17.6898 15.9398V9.03281H18.4398C18.8523 9.03281 19.1898 9.37031 19.1898 9.78281V18.9727H19.1922C19.1922 19.3852 18.8547 19.7227 18.4422 19.7227Z" fill="#333333"/>
</svg>
