<svg width="44px" height="44px" viewBox="0 0 24 25" fill="none" xmlns="http://www.w3.org/2000/svg">
<path d="M18.8883 6.38006L12.682 4.58943C11.9977 4.39256 11.2758 4.52381 10.7063 4.95272C10.1367 5.38162 9.80859 6.03787 9.80859 6.75037V9.00975L4.28437 11.6347C3.50391 12.0051 3 12.8019 3 13.6668V19.1793C3 20.4191 4.01016 21.4293 5.25 21.4293H18.2648C19.5047 21.4293 20.5148 20.4191 20.5148 19.1793V8.541C20.5148 7.5449 19.8445 6.65662 18.8883 6.38006ZM4.49766 19.1816V13.6691C4.49766 13.3808 4.66641 13.116 4.92656 12.9918L9.80625 10.6738V19.9316H5.24766C4.83516 19.9316 4.49766 19.5941 4.49766 19.1816ZM18.2648 19.9316H15.8414V12.7199C15.8414 12.3051 15.5062 11.9699 15.0914 11.9699C14.6766 11.9699 14.3414 12.3051 14.3414 12.7199V19.9293H11.3062V6.75272C11.3062 6.516 11.4141 6.29568 11.6062 6.15272C11.7961 6.00975 12.0352 5.96756 12.2648 6.03318L18.4734 7.82147C18.7922 7.91287 19.0148 8.21053 19.0148 8.541V19.1816C19.0148 19.5941 18.6773 19.9316 18.2648 19.9316Z" fill="#333333"/>
</svg>
