<svg width="44px" height="44px" viewBox="0 0 32 32" fill="none" xmlns="http://www.w3.org/2000/svg">
<g id="&#233;&#128;&#154;&#231;&#148;&#168;/&#231;&#187;&#188;&#229;&#144;&#136;/Business card">
<path id="&#229;&#155;&#190;&#230;&#160;&#135;&#233;&#162;&#156;&#232;&#137;&#178;" fill-rule="evenodd" clip-rule="evenodd" d="M26.7353 5.33333H5.6665C4.01338 5.33333 2.6665 6.6802 2.6665 8.33333V24.0583C2.6665 25.7115 4.01338 27.0583 5.6665 27.0583H26.7321C28.3853 27.0583 29.7321 25.7115 29.7321 24.0583V8.33333C29.7353 6.67708 28.3884 5.33333 26.7353 5.33333ZM27.7353 24.0583C27.7353 24.6083 27.2853 25.0583 26.7353 25.0583H5.6665C5.1165 25.0583 4.6665 24.6083 4.6665 24.0583V8.33333C4.6665 7.78333 5.1165 7.33333 5.6665 7.33333H26.7321C27.2821 7.33333 27.7321 7.78333 27.7321 8.33333V24.0583H27.7353ZM6.66338 14.2458C6.66338 12.0771 8.429 10.3146 10.5946 10.3146C12.7603 10.3146 14.5228 12.0802 14.5228 14.2458C14.5228 16.4115 12.7634 18.174 10.5946 18.174C8.42588 18.174 6.66338 16.4146 6.66338 14.2458ZM8.66338 14.2458C8.66338 15.3083 9.53213 16.174 10.5946 16.174C11.6571 16.174 12.5228 15.3115 12.5228 14.2458C12.5228 13.1802 11.6603 12.3146 10.5946 12.3146C9.529 12.3146 8.66338 13.1833 8.66338 14.2458ZM13.5228 20.0583H7.66338C7.11025 20.0583 6.66338 20.5052 6.66338 21.0583C6.66338 21.6115 7.11025 22.0583 7.66338 22.0583H13.5228C14.0759 22.0583 14.5228 21.6115 14.5228 21.0583C14.5228 20.5052 14.0728 20.0583 13.5228 20.0583ZM18.3446 11.7083H24.7603C25.3134 11.7083 25.7603 12.1552 25.7603 12.7083C25.7603 13.2615 25.3134 13.7083 24.7603 13.7083H18.3446C17.7915 13.7083 17.3446 13.2615 17.3446 12.7083C17.3446 12.1552 17.7915 11.7083 18.3446 11.7083ZM24.7603 15.8833H21.5509C20.9978 15.8833 20.5509 16.3302 20.5509 16.8833C20.5509 17.4365 20.9978 17.8833 21.5509 17.8833H24.7603C25.3134 17.8833 25.7603 17.4365 25.7603 16.8833C25.7603 16.3302 25.3134 15.8833 24.7603 15.8833Z" fill="#266EFF"/>
</g>
</svg>
