<svg width="14" height="14" viewBox="0 0 14 14" fill="none" xmlns="http://www.w3.org/2000/svg">
    <g id="star">
        <g id="Vector" filter="url(#filter0_i_2667_26089)">
            <path
                d="M12.4156 4.82735L8.94433 4.32286L7.39258 1.17696C7.35019 1.09083 7.28047 1.0211 7.19433 0.978716C6.97832 0.872075 6.71582 0.960943 6.60781 1.17696L5.05605 4.32286L1.58476 4.82735C1.48906 4.84102 1.40156 4.88614 1.33457 4.9545C1.25358 5.03774 1.20895 5.14973 1.21049 5.26586C1.21203 5.38199 1.25961 5.49276 1.34277 5.57383L3.85429 8.02247L3.26094 11.4801C3.24702 11.5605 3.25592 11.6432 3.28663 11.7189C3.31733 11.7945 3.36862 11.86 3.43466 11.908C3.50071 11.9559 3.57887 11.9844 3.66029 11.9903C3.74171 11.9961 3.82313 11.9789 3.89531 11.9408L7.00019 10.3084L10.1051 11.9408C10.1898 11.9859 10.2883 12.001 10.3826 11.9846C10.6205 11.9436 10.7805 11.718 10.7395 11.4801L10.1461 8.02247L12.6576 5.57383C12.726 5.50684 12.7711 5.41934 12.7848 5.32364C12.8217 5.08438 12.6549 4.8629 12.4156 4.82735V4.82735Z"
                fill="url(#paint0_linear_2667_26089)"
            />
        </g>
    </g>
    <defs>
        <filter id="filter0_i_2667_26089" x="1.21045" y="0.933594" width="11.5793" height="11.0586" filterUnits="userSpaceOnUse" color-interpolation-filters="sRGB">
            <feFlood flood-opacity="0" result="BackgroundImageFix" />
            <feBlend mode="normal" in="SourceGraphic" in2="BackgroundImageFix" result="shape" />
            <feColorMatrix in="SourceAlpha" type="matrix" values="0 0 0 0 0 0 0 0 0 0 0 0 0 0 0 0 0 0 127 0" result="hardAlpha" />
            <feOffset />
            <feGaussianBlur stdDeviation="1" />
            <feComposite in2="hardAlpha" operator="arithmetic" k2="-1" k3="1" />
            <feColorMatrix type="matrix" values="0 0 0 0 1 0 0 0 0 1 0 0 0 0 1 0 0 0 0.3 0" />
            <feBlend mode="normal" in2="shape" result="effect1_innerShadow_2667_26089" />
        </filter>
        <linearGradient id="paint0_linear_2667_26089" x1="8.7371" y1="5.63314" x2="-11.5554" y2="18.9143" gradientUnits="userSpaceOnUse">
            <stop stop-color="#2E5AF7" />
            <stop offset="1" stop-color="#19F1FF" />
        </linearGradient>
    </defs>
</svg>
