<svg width="44px" height="44px" viewBox="0 0 24 25" fill="none" xmlns="http://www.w3.org/2000/svg">
<path fill-rule="evenodd" clip-rule="evenodd" d="M11.9658 16.8363C11.7736 16.8363 11.5814 16.7636 11.4361 16.6183L5.57676 10.7917C5.28379 10.5011 5.28145 10.0253 5.57441 9.73237C5.86738 9.4394 6.34316 9.43706 6.63613 9.73003L11.2158 14.2816V4.41675C11.2158 4.0019 11.551 3.66675 11.9658 3.66675C12.3807 3.66675 12.7158 4.0019 12.7158 4.41675V14.2816L17.2979 9.73237C17.5908 9.4394 18.0666 9.44175 18.3572 9.73472C18.6502 10.0277 18.6479 10.5011 18.3549 10.7941L12.4955 16.6183C12.3479 16.7636 12.158 16.8363 11.9658 16.8363ZM19.2314 14.3636C19.2314 13.9488 19.5666 13.6136 19.9814 13.6136C20.3939 13.6136 20.7314 13.9488 20.7314 14.3636V18.9433C20.7314 20.1832 19.7213 21.1933 18.4814 21.1933H5.4502C4.21035 21.1933 3.2002 20.1832 3.2002 18.9433V14.3636C3.2002 13.9488 3.53535 13.6136 3.9502 13.6136C4.36504 13.6136 4.7002 13.9488 4.7002 14.3636V18.9433C4.7002 19.3558 5.0377 19.6933 5.4502 19.6933H18.4814C18.8939 19.6933 19.2314 19.3558 19.2314 18.9433V14.3636Z" fill="#333333"/>
</svg>
