<svg width="44px" height="44px" viewBox="0 0 32 32" fill="none" xmlns="http://www.w3.org/2000/svg">
<g id="icon/Decorate">
<path id="Union" fill-rule="evenodd" clip-rule="evenodd" d="M22 6H8C6.89543 6 6 6.89543 6 8C6 9.10457 6.89543 10 8 10H22C23.1046 10 24 9.10457 24 8C24 6.89543 23.1046 6 22 6ZM8 4C5.79086 4 4 5.79086 4 8C4 10.2091 5.79086 12 8 12H22C23.8636 12 25.4295 10.7256 25.8738 9.00069C26.4994 9.02202 27 9.53588 27 10.1667V12.6522C27 13.2045 26.5523 13.6522 26 13.6522H17C15.3431 13.6522 14 14.9953 14 16.6522V19C12.8954 19 12 19.8954 12 21V26C12 27.1046 12.8954 28 14 28H16C17.1046 28 18 27.1046 18 26V21C18 19.8954 17.1046 19 16 19V16.6522C16 16.0999 16.4477 15.6522 17 15.6522H26C27.6569 15.6522 29 14.309 29 12.6522V10.1667C29 8.43135 27.6042 7.02206 25.874 7.00026C25.4301 5.2749 23.8639 4 22 4H8ZM16 26V21H14V26H16Z" fill="#6B6C70"/>
</g>
</svg>
