<svg width="44px" height="44px" viewBox="0 0 24 24" fill="none" xmlns="http://www.w3.org/2000/svg">
<path fill-rule="evenodd" clip-rule="evenodd" d="M19.002 4.00098H5.00044C3.89653 4.00098 3.00122 4.89629 3.00122 6.0002V18.0002C3.00122 19.1041 3.89653 19.9994 5.00044 19.9994H18.9997C20.1036 19.9994 20.9989 19.1041 20.9989 18.0002V6.0002C21.0012 4.89629 20.1059 4.00098 19.002 4.00098ZM19.5012 18.0002C19.5012 18.2768 19.2762 18.4994 19.002 18.4994H5.00044C4.72388 18.4994 4.50122 18.2744 4.50122 18.0002V6.0002C4.50122 5.72363 4.72622 5.50098 5.00044 5.50098H18.9997C19.2762 5.50098 19.4989 5.72598 19.4989 6.0002V18.0002H19.5012ZM11.2512 7.5002C11.2512 7.08535 11.5864 6.7502 12.0012 6.7502C12.4161 6.7502 12.7512 7.08535 12.7512 7.5002V16.5002C12.7512 16.915 12.4161 17.2502 12.0012 17.2502C11.5864 17.2502 11.2512 16.915 11.2512 16.5002V7.5002ZM6.75122 10.5002C6.75122 10.0854 7.08638 9.7502 7.50122 9.7502C7.91606 9.7502 8.25122 10.0854 8.25122 10.5002V16.5002C8.25122 16.915 7.91606 17.2502 7.50122 17.2502C7.08638 17.2502 6.75122 16.915 6.75122 16.5002V10.5002ZM16.5012 12.7502C16.0864 12.7502 15.7512 13.0854 15.7512 13.5002V16.5002C15.7512 16.915 16.0864 17.2502 16.5012 17.2502C16.9161 17.2502 17.2512 16.915 17.2512 16.5002V13.5002C17.2512 13.0854 16.9161 12.7502 16.5012 12.7502Z" fill="#333333"/>
</svg>
