<svg width="44px" height="44px" viewBox="0 0 24 25" fill="none" xmlns="http://www.w3.org/2000/svg">
<path fill-rule="evenodd" clip-rule="evenodd" d="M11.8742 22.4152C6.42969 22.4152 2 17.9855 2 12.541C2 7.09644 6.42969 2.66675 11.8742 2.66675C17.3188 2.66675 21.7484 7.09644 21.7484 12.541C21.7484 17.9855 17.3188 22.4152 11.8742 22.4152ZM11.8742 4.16675C7.25703 4.16675 3.5 7.92378 3.5 12.541C3.5 17.1582 7.25703 20.9152 11.8742 20.9152C16.4914 20.9152 20.2484 17.1582 20.2484 12.541C20.2484 7.92378 16.4914 4.16675 11.8742 4.16675ZM14.5602 7.96128C13.9203 7.38237 13.0906 7.1105 12.0594 7.1105C10.8805 7.1105 9.95 7.44097 9.27969 8.13003C8.79922 8.6105 8.49922 9.20112 8.35859 9.92065L8.35446 9.94195L8.35446 9.94197C8.3461 9.98462 8.3375 10.0285 8.3375 10.0707C8.3375 10.5113 8.71719 10.891 9.18828 10.891C9.59844 10.891 9.92891 10.5816 10.0086 10.1714C10.0789 9.80112 10.1984 9.49175 10.3789 9.25034C10.7 8.79097 11.2297 8.56128 11.9492 8.56128C12.5281 8.56128 12.9898 8.73237 13.3086 9.05112C13.618 9.37222 13.7797 9.80112 13.7797 10.3613C13.7797 10.7714 13.6203 11.1605 13.3297 11.5308L13.0508 11.8308C12.0617 12.7097 11.45 13.3707 11.2508 13.8207C11.1102 14.0597 10.9531 14.6246 10.9508 14.8917C10.9461 15.2128 11.15 15.4824 11.4102 15.6113C11.5297 15.6816 11.6703 15.7214 11.8203 15.7214C11.9703 15.7214 12.1109 15.6816 12.2305 15.6113C12.4414 15.5011 12.6219 15.3066 12.6594 15.0511C12.6875 14.8542 12.7695 14.5121 12.8984 14.28C13.0391 13.9894 13.2594 13.7011 13.5688 13.4503C14.3188 12.7894 14.7688 12.3699 14.9094 12.2011C15.3102 11.6902 15.5188 11.0316 15.5188 10.2511C15.5211 9.29019 15.2 8.52144 14.5602 7.96128ZM12.6219 16.7925C12.8469 17.0011 12.9594 17.273 12.9594 17.6082C12.9594 17.9433 12.8305 18.2152 12.6078 18.4402C12.3852 18.6488 12.0945 18.7613 11.7758 18.7613C11.4547 18.7613 11.1664 18.6488 10.9438 18.4261C10.7211 18.2035 10.6086 17.9292 10.6086 17.6105C10.6086 17.273 10.7211 17.0011 10.9438 16.7949C11.1687 16.5699 11.457 16.4738 11.7758 16.4738C12.1109 16.4738 12.3992 16.5699 12.6219 16.7925Z" fill="#333333"/>
</svg>
