<svg width="44px" height="44px" viewBox="0 0 24 25" fill="none" xmlns="http://www.w3.org/2000/svg">
<path d="M17.0531 3.77734H18.3281C19.568 3.77734 20.5781 4.7875 20.5781 6.02734V15.8781C20.5781 17.118 19.568 18.1281 18.3281 18.1281H16.5094V19.9469C16.5094 21.1867 15.4992 22.1969 14.2594 22.1969H5.25C4.01016 22.1969 3 21.1867 3 19.9469V10.0258C3 8.78594 4.01016 7.77578 5.25 7.77578H6.99375V6.02734C6.99375 4.7875 8.00391 3.77734 9.24375 3.77734H10.5188V3.25C10.5188 2.83516 10.8539 2.5 11.2688 2.5C11.6836 2.5 12.0188 2.83516 12.0188 3.25V3.77734H15.5531V3.27344C15.5531 2.85859 15.8883 2.52344 16.3031 2.52344C16.718 2.52344 17.0531 2.85859 17.0531 3.27344V3.77734ZM14.2594 20.6969C14.6719 20.6969 15.0094 20.3594 15.0094 19.9469H15.007V14.275H11.7586C10.793 14.275 10.0078 13.4898 10.0078 12.5242V9.27578H5.25C4.8375 9.27578 4.5 9.61328 4.5 10.0258V19.9469C4.5 20.3594 4.8375 20.6969 5.25 20.6969H14.2594ZM11.5102 12.025C11.5102 12.4398 11.8453 12.775 12.2602 12.775H13.95L11.5102 10.3352V12.025ZM18.3281 16.6281C18.7406 16.6281 19.0781 16.2906 19.0781 15.8781V6.02969C19.0781 5.61719 18.7406 5.27969 18.3281 5.27969H17.0555V5.78359C17.0555 6.19844 16.7203 6.53359 16.3055 6.53359C15.8906 6.53359 15.5555 6.19844 15.5555 5.78359V5.27969H12.0211V5.76016C12.0211 6.175 11.6859 6.51016 11.2711 6.51016C10.8563 6.51016 10.5211 6.175 10.5211 5.76016V5.27969H9.24609C8.83359 5.27969 8.49609 5.61719 8.49609 6.02969V7.77812H10.7602C10.7711 7.77812 10.7804 7.78051 10.79 7.78297C10.7969 7.78473 10.8039 7.78652 10.8117 7.7875C10.8773 7.79219 10.9406 7.80391 11.0016 7.825C11.0273 7.83203 11.0531 7.83906 11.0766 7.85078C11.1539 7.88828 11.2266 7.93281 11.2898 7.99609L16.2891 12.9953C16.3523 13.0586 16.3992 13.1336 16.4344 13.2109C16.4414 13.225 16.4459 13.2391 16.4504 13.2531C16.4534 13.2625 16.4564 13.2719 16.4602 13.2812C16.4812 13.3445 16.4953 13.4102 16.5 13.4781C16.5 13.4863 16.5023 13.4939 16.5047 13.5016C16.507 13.5092 16.5094 13.5168 16.5094 13.525V16.6281H18.3281Z" fill="#333333"/>
</svg>
