<svg width="44px" height="44px" viewBox="0 0 24 24" fill="none" xmlns="http://www.w3.org/2000/svg">
<path fill-rule="evenodd" clip-rule="evenodd" d="M13.054 3.21094L20.7719 6.81328C21.1469 6.98906 21.3087 7.43437 21.1329 7.80937C21.0063 8.08359 20.7344 8.24297 20.4532 8.24297C20.3477 8.24297 20.2399 8.21953 20.1368 8.17266L12.4188 4.57031C12.2172 4.47656 11.9852 4.47656 11.7837 4.57031L4.06568 8.17266C3.69068 8.34609 3.24537 8.18437 3.06959 7.80937C2.89615 7.43437 3.05787 6.98906 3.43287 6.81328L11.1508 3.21094C11.7555 2.92969 12.4493 2.92969 13.054 3.21094ZM18.3227 9.79688C18.3227 9.38203 18.6579 9.04688 19.0727 9.04688C19.4852 9.04688 19.8227 9.38203 19.8204 9.79688V18.0938C19.8204 19.3336 18.8102 20.3438 17.5704 20.3438H13.9352C13.5204 20.3438 13.1852 20.0086 13.1852 19.5938V15.9656H10.9118V19.5938C10.9118 20.0086 10.5766 20.3438 10.1618 20.3438H6.63209C5.39225 20.3438 4.38209 19.3336 4.38209 18.0938V9.79688C4.38209 9.38203 4.71725 9.04688 5.13209 9.04688C5.54693 9.04688 5.88209 9.38203 5.88209 9.79688V18.0938C5.88209 18.5063 6.21959 18.8438 6.63209 18.8438H9.41178V15.2156C9.41178 14.8008 9.74693 14.4656 10.1618 14.4656H13.9352C14.3501 14.4656 14.6852 14.8008 14.6852 15.2156V18.8438H17.5727C17.9852 18.8438 18.3227 18.5063 18.3227 18.0938V9.79688Z" fill="#333333"/>
</svg>
