<svg width="44px" height="44px" viewBox="0 0 16 17" fill="none" xmlns="http://www.w3.org/2000/svg">
<path fill-rule="evenodd" clip-rule="evenodd" d="M3.76662 5.07997L7.63995 8.95331C7.83528 9.14864 8.15195 9.14864 8.34728 8.95331L12.22 5.07997C12.318 4.98264 12.3666 4.85464 12.3666 4.72664C12.3666 4.59864 12.318 4.47064 12.22 4.37331C12.0246 4.17797 11.7086 4.17797 11.5133 4.37331L7.99328 7.89264L4.47395 4.37331C4.27862 4.17797 3.96195 4.17797 3.76662 4.37331C3.57128 4.56864 3.57128 4.88464 3.76662 5.07997ZM3.76662 9.07997L7.63995 12.9533C7.83528 13.1486 8.15195 13.1486 8.34728 12.9533L12.22 9.07997C12.318 8.98264 12.3666 8.85464 12.3666 8.72664C12.3666 8.59864 12.318 8.47064 12.22 8.37331C12.0246 8.17797 11.7086 8.17797 11.5133 8.37331L7.99328 11.8926L4.47395 8.37331C4.27862 8.17797 3.96195 8.17797 3.76662 8.37331C3.57128 8.56864 3.57128 8.88464 3.76662 9.07997Z" fill="#333333"/>
</svg>
