<svg width="44px" height="44px" viewBox="0 0 24 24" fill="none" xmlns="http://www.w3.org/2000/svg">
<path d="M11.8742 2C6.42969 2 2 6.42969 2 11.8742C2 17.3188 6.42969 21.7484 11.8742 21.7484C17.3188 21.7484 21.7484 17.3188 21.7484 11.8742C21.7484 6.42969 17.3188 2 11.8742 2ZM10.6742 11.8742C10.6742 12.537 11.2115 13.0742 11.8742 13.0742C12.537 13.0742 13.0742 12.537 13.0742 11.8742C13.0742 11.4455 12.8455 11.0493 12.4742 10.835C12.1029 10.6206 11.6455 10.6206 11.2742 10.835C10.9029 11.0493 10.6742 11.4455 10.6742 11.8742ZM15.1742 11.8742C15.1742 12.3029 15.4029 12.6991 15.7742 12.9134C16.1455 13.1278 16.6029 13.1278 16.9742 12.9134C17.3455 12.6991 17.5742 12.3029 17.5742 11.8742C17.5742 11.4455 17.3455 11.0493 16.9742 10.835C16.6029 10.6206 16.1455 10.6206 15.7742 10.835C15.4029 11.0493 15.1742 11.4455 15.1742 11.8742ZM7.37422 13.0742C6.71148 13.0742 6.17422 12.537 6.17422 11.8742C6.17422 11.4455 6.40294 11.0493 6.77422 10.835C7.1455 10.6206 7.60294 10.6206 7.97422 10.835C8.3455 11.0493 8.57422 11.4455 8.57422 11.8742C8.57422 12.537 8.03696 13.0742 7.37422 13.0742ZM3.5 11.8742C3.5 7.25703 7.25703 3.5 11.8742 3.5C16.4914 3.5 20.2484 7.25703 20.2484 11.8742C20.2484 16.4914 16.4914 20.2484 11.8742 20.2484C7.25703 20.2484 3.5 16.4914 3.5 11.8742Z" fill="#333333"/>
</svg>
