<svg width="44px" height="44px" viewBox="0 0 24 25" fill="none" xmlns="http://www.w3.org/2000/svg">
<path d="M19.6929 19.451H12.4526C11.4537 19.4504 10.6439 18.6411 10.6436 17.6425V4.97522C10.6439 3.9766 11.4537 3.16701 12.4526 3.16675H19.6906C20.6897 3.16675 21.4997 3.97634 21.5 4.97522V17.6425C21.5004 17.88 21.4539 18.1153 21.3632 18.3348C21.2725 18.5544 21.1394 18.7538 20.9715 18.9217C20.8035 19.0897 20.6041 19.223 20.3846 19.3138C20.1651 19.4046 19.9304 19.4512 19.6929 19.451ZM20.1445 5.42914C20.1445 4.92893 19.7391 4.52362 19.2389 4.52362H12.9065C12.4063 4.52362 12.0009 4.92893 12.0009 5.42914V14.0227H20.1445V5.42914ZM20.1445 15.3798H12.0009V17.1883C12.0009 17.6885 12.4063 18.0938 12.9065 18.0938H19.2412C19.7409 18.0938 20.1463 17.6885 20.1463 17.1883V15.3798H20.1445ZM16.0727 17.6422C15.9139 17.6424 15.7578 17.6007 15.6202 17.5214C15.4826 17.4421 15.3682 17.3279 15.2886 17.1904C15.2091 17.0529 15.1672 16.8968 15.167 16.738C15.1669 16.5791 15.2086 16.423 15.2878 16.2854C15.3673 16.1477 15.4815 16.0334 15.6191 15.9539C15.7566 15.8744 15.9126 15.8325 16.0714 15.8325C16.5714 15.832 16.9768 16.237 16.977 16.7367C16.9776 17.2367 16.5727 17.642 16.0727 17.6422ZM5.10972 8.22825C5.41134 7.70696 5.85426 7.04961 6.43796 6.46659C7.63775 5.26609 9.23523 4.47295 9.23523 4.47295C9.48469 4.20497 9.47724 3.78757 9.21827 3.52885C8.95931 3.27013 8.54182 3.26293 8.27386 3.51265C8.00616 3.76237 6.7347 4.35902 5.53209 5.56055C4.86386 6.22973 4.3061 7.00152 3.93923 7.55856L3.26628 7.17438C3.06629 7.0602 2.81754 7.20462 2.81754 7.43491V10.0829C2.81754 10.2982 3.03769 10.4434 3.23564 10.3587L5.88383 9.22463C6.11151 9.12713 6.12965 8.81133 5.91463 8.68841L5.10972 8.22825ZM4.30944 11.3087H8.8329C9.07543 11.3087 9.29946 11.4381 9.42072 11.6479C9.54198 11.8578 9.54198 12.1165 9.42072 12.3264C9.29946 12.5362 9.07543 12.6656 8.8329 12.6656H4.76109C4.2614 12.6656 3.85599 13.0709 3.85599 13.5711V19.9046C3.85599 20.4043 4.26062 20.8096 4.76109 20.8096H16.9765C17.227 20.8096 17.4287 20.6059 17.4287 20.358C17.4287 20.1158 17.5579 19.8918 17.7681 19.7704C17.8713 19.7109 17.9883 19.6795 18.1075 19.6795C18.2266 19.6795 18.3436 19.7109 18.4468 19.7704C18.55 19.8298 18.6357 19.9154 18.6953 20.0186C18.7549 20.1218 18.7862 20.2389 18.7862 20.358C18.7857 21.3569 17.9759 22.1667 16.9768 22.1667H4.30892C3.31005 22.1662 2.50051 21.3569 2.5 20.358V13.1172C2.50026 12.1186 3.31056 11.309 4.30944 11.3087Z" fill="#2C2C2C"/>
</svg>
