<svg width="44px" height="44px" viewBox="0 0 24 24" fill="none" xmlns="http://www.w3.org/2000/svg">
<path fill-rule="evenodd" clip-rule="evenodd" d="M7.05821 10.073C6.97521 10.102 6.88921 10.116 6.80621 10.116C6.49821 10.116 6.20921 9.925 6.09921 9.618C5.88021 9.003 5.76821 8.357 5.76821 7.699C5.76821 4.556 8.32521 2 11.4682 2C14.6102 2 17.1672 4.556 17.1672 7.699C17.1672 8.345 17.0602 8.979 16.8482 9.582C16.7112 9.972 16.2832 10.178 15.8922 10.042C15.5022 9.905 15.2962 9.477 15.4322 9.086C15.5882 8.642 15.6672 8.176 15.6672 7.699C15.6672 5.384 13.7832 3.5 11.4682 3.5C9.15221 3.5 7.26821 5.384 7.26821 7.699C7.26821 8.184 7.35021 8.66 7.51321 9.114C7.65221 9.504 7.44821 9.933 7.05821 10.073ZM14.0978 12.7673H18.2628C19.5038 12.7673 20.5128 13.7763 20.5128 15.0173V20.6703C20.5128 21.0843 20.1768 21.4203 19.7628 21.4203C19.3488 21.4203 19.0128 21.0843 19.0128 20.6703V15.0173C19.0128 14.6033 18.6768 14.2673 18.2628 14.2673H13.3478C12.9338 14.2673 12.5978 13.9313 12.5978 13.5173V8.0923C12.5978 7.4863 12.1968 6.9643 11.6628 6.8773C11.3198 6.8203 10.9928 6.9113 10.7368 7.1303C10.4838 7.3453 10.3378 7.6593 10.3378 7.9913V16.0643C10.3378 16.3473 10.1788 16.6053 9.92681 16.7333C9.67581 16.8613 9.37281 16.8363 9.14381 16.6683L7.10081 15.1673C6.89281 15.0153 6.64081 14.9513 6.38381 14.9913C6.12881 15.0303 5.90481 15.1663 5.75181 15.3733C5.54681 15.6533 5.46281 15.9953 5.51481 16.3373C5.56781 16.6793 5.74981 16.9803 6.02881 17.1843L9.94981 20.0653C10.2998 20.2883 10.4228 20.7613 10.2008 21.1113C10.0558 21.3383 9.81781 21.4653 9.57281 21.4653C9.44081 21.4653 9.30781 21.4283 9.18481 21.3503C9.17974 21.347 9.16402 21.3375 9.14538 21.3261C9.11259 21.3062 9.07074 21.2807 9.06181 21.2743L5.14081 18.3933C4.53881 17.9523 4.14581 17.3023 4.03281 16.5633C3.91981 15.8263 4.10081 15.0873 4.54281 14.4863C4.93281 13.9553 5.50581 13.6083 6.15681 13.5083C6.80681 13.4123 7.45781 13.5693 7.98881 13.9583L8.83781 14.5823V7.9913C8.83781 7.2183 9.17581 6.4883 9.76481 5.9873C10.3538 5.4873 11.1328 5.2733 11.9048 5.3973C13.1548 5.6003 14.0978 6.7593 14.0978 8.0923V12.7673Z" fill="#333333"/>
</svg>
