<svg width="24" height="25" viewBox="0 0 24 25" fill="none" xmlns="http://www.w3.org/2000/svg">
<path d="M19.6746 12.7699C19.6793 12.7746 19.684 12.7793 19.6898 12.7839C20.1984 13.2035 20.5125 13.8316 20.5125 14.5183V18.8542C20.5125 20.0941 19.5047 21.1019 18.2648 21.1019H5.24766C4.00781 21.1019 3 20.0941 3 18.8542V14.5183C3 13.8339 3.31406 13.2058 3.82266 12.7863C3.83203 12.7769 3.84141 12.7675 3.85078 12.7605C3.90234 12.7207 3.95625 12.6832 4.01016 12.648V5.9144C4.01016 4.67456 5.01797 3.66675 6.25781 3.66675H17.2547C18.4945 3.66675 19.5023 4.67456 19.5023 5.9144V12.6457C19.5562 12.6808 19.6102 12.716 19.6594 12.7558C19.6652 12.7605 19.6699 12.7652 19.6746 12.7699ZM17.2547 5.1644H6.25781C5.84531 5.1644 5.51016 5.49956 5.51016 5.9144V13.1402L11.7586 16.4917L18.0047 13.1425V5.9144C18.0047 5.49956 17.6672 5.1644 17.2547 5.1644ZM19.0148 18.8519H19.0125V14.516C19.0125 14.4457 19.0008 14.38 18.982 14.3167L12.1102 18.0011C12 18.0597 11.8781 18.0902 11.7562 18.0902C11.6344 18.0902 11.5125 18.0597 11.4023 18.0011L4.52812 14.3167C4.51172 14.38 4.49766 14.448 4.49766 14.516V18.8519C4.49766 19.2667 4.83516 19.6019 5.24766 19.6019H18.2648C18.6797 19.6019 19.0148 19.2644 19.0148 18.8519ZM8.55234 9.15581H15.0445C15.457 9.15581 15.7945 8.82065 15.7945 8.40581C15.7945 7.99097 15.4594 7.65581 15.0445 7.65581H8.55234C8.13984 7.65581 7.80234 7.99097 7.80234 8.40581C7.80234 8.82065 8.13984 9.15581 8.55234 9.15581ZM8.55234 12.6503H11.0648C11.4773 12.6503 11.8148 12.3152 11.8148 11.9003C11.8148 11.4855 11.4797 11.1503 11.0648 11.1503H8.55234C8.13984 11.1503 7.80234 11.4855 7.80234 11.9003C7.80234 12.3152 8.13984 12.6503 8.55234 12.6503Z" fill="#333333"/>
</svg>
